
<svg xmlns="http://www.w3.org/2000/svg" version="1.1" xmlns:xlink="http://www.w3.org/1999/xlink" preserveAspectRatio="none" x="0px" y="0px" width="911px" height="130px" viewBox="0 0 911 130">
<defs>
<linearGradient id="Gradient_1" gradientUnits="userSpaceOnUse" x1="-490.65" y1="43.25" x2="-490.65" y2="50.95" spreadMethod="pad">
<stop  offset="0%" stop-color="#000000" stop-opacity="0.5176470588235295"/>

<stop  offset="93.72549019607843%" stop-color="#000000" stop-opacity="0"/>
</linearGradient>

<radialGradient id="Gradient_2" gradientUnits="userSpaceOnUse" cx="0" cy="0" r="118.17500000000001" fx="0" fy="0" gradientTransform="matrix( 1, 0, 0, 0.7196953670404062, 389.95,-21.05) " spreadMethod="pad">
<stop  offset="78.03921568627452%" stop-color="#000000" stop-opacity="0.5176470588235295"/>

<stop  offset="85.49019607843137%" stop-color="#000000" stop-opacity="0"/>
</radialGradient>

<linearGradient id="Gradient_3" gradientUnits="userSpaceOnUse" x1="-77.85" y1="-116.06249999999999" x2="-77.85" y2="-331.3375" spreadMethod="pad">
<stop  offset="0%" stop-color="#004966"/>

<stop  offset="27.84313725490196%" stop-color="#0099CC"/>

<stop  offset="36.07843137254902%" stop-color="#4DB8DD"/>

<stop  offset="41.96078431372549%" stop-color="#89D1EA"/>

<stop  offset="45.88235294117647%" stop-color="#5FB1CF"/>

<stop  offset="50.19607843137255%" stop-color="#3E98BA"/>

<stop  offset="54.509803921568626%" stop-color="#1484AF"/>

<stop  offset="61.568627450980394%" stop-color="#007BAA"/>

<stop  offset="89.41176470588235%" stop-color="#004966"/>
</linearGradient>

<linearGradient id="Gradient_4" gradientUnits="userSpaceOnUse" x1="-40.8" y1="37.8875" x2="-40.8" y2="-181.78750000000002" spreadMethod="pad">
<stop  offset="0%" stop-color="#004966"/>

<stop  offset="27.84313725490196%" stop-color="#0099CC"/>

<stop  offset="36.07843137254902%" stop-color="#4DB8DD"/>

<stop  offset="41.96078431372549%" stop-color="#89D1EA"/>

<stop  offset="45.88235294117647%" stop-color="#5FB1CF"/>

<stop  offset="50.19607843137255%" stop-color="#3E98BA"/>

<stop  offset="54.509803921568626%" stop-color="#1484AF"/>

<stop  offset="61.568627450980394%" stop-color="#007BAA"/>

<stop  offset="89.41176470588235%" stop-color="#004966"/>
</linearGradient>

<g id="nav_0_Layer0_0_MEMBER_0_FILL">
<path fill="url(#Gradient_1)" stroke="none" d="
M 403.45 55.7
Q 406.7734375 55.7 409.95 55.5
L 409.95 -4.8 -454.15 -4.8 -454.15 56.6 -65.55 56.6
Q -58.9 56.6 -52.95 55.7
L 403.45 55.7 Z"/>

<path fill="url(#Gradient_2)" stroke="none" d="
M 454.9 -4.8
L 409.95 -4.8 409.95 55.5
Q 427.8513671875 54.41875 441.1 47.2 451.4337890625 41.5513671875 454.9 34.3
L 454.9 -4.8 Z"/>
</g>

<g id="nav_0_Layer0_1_MEMBER_0_MEMBER_0_FILL">
<path fill="url(#Gradient_3)" stroke="none" d="
M 142.45 -118.55
Q 150.2 -126.25 150.2 -137.15
L 150.2 -216.65 -268.35 -216.65 -268.35 -137.15
Q -268.35 -126.25 -260.65 -118.55 -252.9 -110.8 -242 -110.8
L 123.85 -110.8
Q 134.75 -110.8 142.45 -118.55 Z"/>
</g>

<g id="nav_0_Layer0_1_MEMBER_1_FILL">
<path fill="url(#Gradient_4)" stroke="none" d="
M 455.5 -64.8
L -455.45 -64.8 -455.45 43.15 398.15 43.2
Q 421.85 43.2 438.65 35.3 455.5 27.45 455.5 16.35
L 455.5 -64.8 Z"/>
</g>

<g id="Layer0_1_FILL">
<path fill="#FFFFFF" fill-opacity="0.2" stroke="none" d="
M 972.4 -5.75
L 969.95 -5.75 969.95 67.95
Q 969.95 68.45 970.3 68.8 970.65 69.15 971.15 69.15
L 971.2 69.15
Q 971.7 69.15 972.05 68.8 972.4 68.45 972.4 67.95
L 972.4 -5.75 Z"/>
</g>

<path id="Layer0_1_1_STROKES" stroke="#FFFFFF" stroke-opacity="0.11764705882352941" stroke-width="1" stroke-linejoin="round" stroke-linecap="butt" fill="none" d="
M 776.6016716003419 18.7
L 774.2758239746095 18.7 774.2758239746095 92.4
Q 774.2758239746095 92.9 774.6080879211427 93.25 774.9403518676759 93.60000000000001 775.4150146484376 93.60000000000001
L 775.4624809265138 93.60000000000001
Q 775.9371437072755 93.60000000000001 776.2694076538087 93.25 776.6016716003419 92.9 776.6016716003419 92.4
L 776.6016716003419 18.7 Z"/>
</defs>

<g transform="matrix( 1, 0, 0, 1, 455.5,65) ">
<g transform="matrix( 1, 0, 0, 1, -0.35,1.4) ">
<use xlink:href="#nav_0_Layer0_0_MEMBER_0_FILL"/>
</g>

<g transform="matrix( 2.1763916015625, 0, 0, 1.0205535888671875, 128.6,156.3) ">
<use xlink:href="#nav_0_Layer0_1_MEMBER_0_MEMBER_0_FILL"/>
</g>

<g transform="matrix( 1, 0, 0, 1, 0,0) ">
<use xlink:href="#nav_0_Layer0_1_MEMBER_1_FILL"/>
</g>
</g>

<g transform="matrix( -0.9493255615234375, 0, 0, 1, 1697.4,24.45) ">
<use xlink:href="#Layer0_1_FILL"/>

<use xlink:href="#Layer0_1_1_STROKES" transform="matrix( -1.053375244140625, 0, 0, 1, 1788,-24.45) "/>
</g>
</svg>
