
<svg xmlns="http://www.w3.org/2000/svg" version="1.1" xmlns:xlink="http://www.w3.org/1999/xlink" preserveAspectRatio="none" x="0px" y="0px" width="90px" height="90px" viewBox="0 0 90 90">
<defs>
<g id="iconos_0_Layer1_0_FILL">
<path fill="#0099CC" stroke="none" d="
M -23.05 -8.1
Q -23.15 -8.1 -23.2 -8.05
L -23 -8.1 -23.05 -8.1
M 26.9 -3.15
Q 26.9 -7.1 22.95 -7.1 0 -12.05 -23 -7.1 -26.95 -7.1 -26.95 -3.15
L -26.95 35.45
Q -26.95 39.4 -23 39.4 1.15 44.4 22.95 39.4 26.9 39.4 26.9 35.45
L 26.9 -3.15
M 23.15 -8.05
Q 23.1 -8.1 23.05 -8.1 23 -8.1 22.95 -8.1
L 23.15 -8.05 Z"/>

<path fill="#80CCE6" stroke="none" d="
M 0.6 -33.35
Q 5.65 -33.35 9.25 -29.65 12.8 -25.85 12.8 -20.55
L 12.8 -13.75
Q 12.8 -13.7 12.8 -13.65 12.8 -13.3 13.05 -13
L 13.1 -12.95
Q 13.3 -12.7 13.65 -12.65
L 13.7 -12.65
Q 15.2 -12.5 16.65 -12.25
L 16.7 -12.25
Q 18.35 -12 20 -11.7
L 20.05 -11.65
Q 20.15 -11.65 20.25 -11.65 20.55 -11.65 20.8 -11.8 20.9 -11.9 20.95 -11.95 21.15 -12.15 21.25 -12.45 21.25 -12.55 21.25 -12.65
L 21.25 -20.6
Q 21.25 -29.4 15.35 -35.65 9.3 -41.9 0.85 -41.9
L -0.85 -41.9
Q -9.25 -41.9 -15.25 -35.65 -21.25 -29.4 -21.25 -20.6
L -21.25 -12.65
Q -21.25 -12.55 -21.2 -12.45 -21.2 -12.35 -21.15 -12.25 -21.1 -12.1 -20.95 -11.95 -20.9 -11.9 -20.8 -11.8 -20.55 -11.65 -20.25 -11.65 -20.15 -11.65 -20.05 -11.65
L -20 -11.65
Q -18.35 -12 -16.7 -12.25 -16.6 -12.25 -16.5 -12.3 -15.1 -12.5 -13.7 -12.65
L -13.65 -12.65
Q -13.35 -12.7 -13.1 -12.95 -13.05 -13 -13 -13
L -13 -13.05
Q -12.8 -13.3 -12.8 -13.65 -12.8 -13.7 -12.8 -13.75
L -12.8 -20.55
Q -12.8 -25.85 -9.2 -29.65 -5.65 -33.35 -0.6 -33.35
L 0.6 -33.35 Z"/>
</g>

<g id="iconos_0_Layer1_0_MEMBER_0_MEMBER_0_FILL">
<path fill="#80CCE6" stroke="none" d="
M -414.75 -308.5
Q -423.8 -317.55 -436.65 -317.55 -449.5 -317.55 -458.6 -308.5 -467.65 -299.4 -467.65 -286.55 -467.65 -273.7 -458.6 -264.65 -449.5 -255.55 -436.65 -255.55 -423.8 -255.55 -414.75 -264.65 -405.65 -273.7 -405.65 -286.55 -405.65 -299.4 -414.75 -308.5 Z"/>
</g>

<g id="iconos_0_Layer1_0_MEMBER_0_MEMBER_1_FILL">
<path fill="#004966" stroke="none" d="
M 4.3 10.6
Q 3.45 8.85 1.6 8.15 -0.25 7.5 -2.05 8.35 -3.9 9.15 -4.55 11.05 -5.25 12.9 -4.45 14.7 -3.9 15.8 -3.05 16.45
L -4.3 24.3 4.15 24.3 2.95 16.45
Q 4 15.65 4.45 14.3 5.15 12.4 4.3 10.6 Z"/>
</g>

<g id="iconos_0_Layer0_0_FILL">
<path fill="#004966" fill-opacity="0" stroke="none" d="
M 60 -60
L -60 -60 -60 60 60 60 60 -60 Z"/>
</g>
</defs>

<g transform="matrix( 0.7499847412109375, 0, 0, 0.7499847412109375, 45,45) ">
<g transform="matrix( 1, 0, 0, 1, 0,0) ">
<use xlink:href="#iconos_0_Layer1_0_FILL"/>
</g>

<g transform="matrix( 0.4632720947265625, 0, 0, 0.4632720947265625, 202.2,148.8) ">
<use xlink:href="#iconos_0_Layer1_0_MEMBER_0_MEMBER_0_FILL"/>
</g>

<g transform="matrix( 1, 0, 0, 1, 0,0) ">
<use xlink:href="#iconos_0_Layer1_0_MEMBER_0_MEMBER_1_FILL"/>
</g>

<g transform="matrix( 1, 0, 0, 1, 0,0) ">
<use xlink:href="#iconos_0_Layer0_0_FILL"/>
</g>
</g>
</svg>
