
<svg xmlns="http://www.w3.org/2000/svg" version="1.1" xmlns:xlink="http://www.w3.org/1999/xlink" preserveAspectRatio="none" x="0px" y="0px" width="90px" height="90px" viewBox="0 0 90 90">
<defs>
<g id="iconos_1_Layer1_0_MEMBER_0_MEMBER_0_FILL">
<path fill="#004966" stroke="none" d="
M 40.35 -0.5
L 5.1 -0.5 7.2 43.2 37.8 43.2 40.35 -0.5 Z"/>

<path fill="#007CAD" stroke="none" d="
M 36.5 -4.1
L 8.95 -4.1 6.05 -1.5 39.4 -1.5 36.5 -4.1 Z"/>
</g>

<g id="iconos_1_Layer1_0_MEMBER_0_MEMBER_1_FILL">
<path fill="#80CCE6" stroke="none" d="
M -87.75 -49.25
L -100.75 -49.25 -100.75 -36.25 -87.75 -36.25 -87.75 -49.25 Z"/>
</g>

<g id="iconos_1_Layer1_0_MEMBER_0_MEMBER_2_FILL">
<path fill="#80CCE6" stroke="none" d="
M -87.75 -49.25
L -100.75 -49.25 -100.75 -36.25 -87.75 -36.25 -87.75 -49.25 Z"/>
</g>

<g id="iconos_1_Layer1_0_MEMBER_0_MEMBER_3_FILL">
<path fill="#80CCE6" stroke="none" d="
M -87.75 -49.25
L -100.75 -49.25 -100.75 -36.25 -87.75 -36.25 -87.75 -49.25 Z"/>
</g>

<g id="iconos_1_Layer1_0_MEMBER_0_MEMBER_4_FILL">
<path fill="#80CCE6" stroke="none" d="
M -87.75 -49.25
L -100.75 -49.25 -100.75 -36.25 -87.75 -36.25 -87.75 -49.25 Z"/>
</g>

<g id="iconos_1_Layer1_0_MEMBER_0_MEMBER_5_FILL">
<path fill="#80CCE6" stroke="none" d="
M -87.75 -49.25
L -100.75 -49.25 -100.75 -36.25 -87.75 -36.25 -87.75 -49.25 Z"/>
</g>

<g id="iconos_1_Layer1_0_MEMBER_0_MEMBER_6_FILL">
<path fill="#80CCE6" stroke="none" d="
M -87.75 -49.25
L -100.75 -49.25 -100.75 -36.25 -87.75 -36.25 -87.75 -49.25 Z"/>
</g>

<g id="iconos_1_Layer1_0_MEMBER_0_MEMBER_7_FILL">
<path fill="#80CCE6" stroke="none" d="
M -87.75 -49.25
L -100.75 -49.25 -100.75 -36.25 -87.75 -36.25 -87.75 -49.25 Z"/>
</g>

<g id="iconos_1_Layer1_0_MEMBER_0_MEMBER_8_FILL">
<path fill="#000000" stroke="none" d="
M 27.05 33.1
L 20.55 33.1 20.55 43.2 27.05 43.2 27.05 33.1 Z"/>
</g>

<g id="iconos_1_Layer1_0_MEMBER_0_MEMBER_9_FILL">
<path fill="#004966" stroke="none" d="
M -5.1 -0.5
L -40.35 -0.5 -37.8 43.2 -7.2 43.2 -5.1 -0.5 Z"/>

<path fill="#007CAD" stroke="none" d="
M -8.95 -4.1
L -36.5 -4.1 -39.4 -1.5 -6.05 -1.5 -8.95 -4.1 Z"/>
</g>

<g id="iconos_1_Layer1_0_MEMBER_0_MEMBER_10_MEMBER_0_FILL">
<path fill="#00759C" stroke="none" d="
M 13 43.2
L 14.75 -23.6 -14.95 -23.6 -12.8 43.2 13 43.2
M 13.95 -24.4
L 11.5 -28.4 -11.7 -28.4 -14.15 -24.4 13.95 -24.4 Z"/>
</g>

<g id="iconos_1_Layer1_0_MEMBER_0_MEMBER_10_MEMBER_1_MEMBER_0_FILL">
<path fill="#80CCE6" stroke="none" d="
M -87.75 -49.25
L -100.75 -49.25 -100.75 -36.25 -87.75 -36.25 -87.75 -49.25 Z"/>
</g>

<g id="iconos_1_Layer1_0_MEMBER_0_MEMBER_10_MEMBER_1_MEMBER_1_FILL">
<path fill="#80CCE6" stroke="none" d="
M -87.75 -49.25
L -100.75 -49.25 -100.75 -36.25 -87.75 -36.25 -87.75 -49.25 Z"/>
</g>

<g id="iconos_1_Layer1_0_MEMBER_0_MEMBER_10_MEMBER_1_MEMBER_2_FILL">
<path fill="#80CCE6" stroke="none" d="
M -87.75 -49.25
L -100.75 -49.25 -100.75 -36.25 -87.75 -36.25 -87.75 -49.25 Z"/>
</g>

<g id="iconos_1_Layer1_0_MEMBER_0_MEMBER_10_MEMBER_1_MEMBER_3_FILL">
<path fill="#80CCE6" stroke="none" d="
M -87.75 -49.25
L -100.75 -49.25 -100.75 -36.25 -87.75 -36.25 -87.75 -49.25 Z"/>
</g>

<g id="iconos_1_Layer1_0_MEMBER_0_MEMBER_10_MEMBER_1_MEMBER_4_FILL">
<path fill="#80CCE6" stroke="none" d="
M -87.75 -49.25
L -100.75 -49.25 -100.75 -36.25 -87.75 -36.25 -87.75 -49.25 Z"/>
</g>

<g id="iconos_1_Layer1_0_MEMBER_0_MEMBER_10_MEMBER_1_MEMBER_5_FILL">
<path fill="#80CCE6" stroke="none" d="
M -87.75 -49.25
L -100.75 -49.25 -100.75 -36.25 -87.75 -36.25 -87.75 -49.25 Z"/>
</g>

<g id="iconos_1_Layer1_0_MEMBER_0_MEMBER_10_MEMBER_1_MEMBER_6_FILL">
<path fill="#80CCE6" stroke="none" d="
M -87.75 -49.25
L -100.75 -49.25 -100.75 -36.25 -87.75 -36.25 -87.75 -49.25 Z"/>
</g>

<g id="iconos_1_Layer1_0_MEMBER_0_MEMBER_10_MEMBER_1_MEMBER_7_FILL">
<path fill="#80CCE6" stroke="none" d="
M -87.75 -49.25
L -100.75 -49.25 -100.75 -36.25 -87.75 -36.25 -87.75 -49.25 Z"/>
</g>

<g id="iconos_1_Layer1_0_MEMBER_0_MEMBER_10_MEMBER_1_MEMBER_8_FILL">
<path fill="#80CCE6" stroke="none" d="
M -87.75 -49.25
L -100.75 -49.25 -100.75 -36.25 -87.75 -36.25 -87.75 -49.25 Z"/>
</g>

<g id="iconos_1_Layer1_0_MEMBER_0_MEMBER_10_MEMBER_1_MEMBER_9_FILL">
<path fill="#80CCE6" stroke="none" d="
M -87.75 -49.25
L -100.75 -49.25 -100.75 -36.25 -87.75 -36.25 -87.75 -49.25 Z"/>
</g>

<g id="iconos_1_Layer1_0_MEMBER_0_MEMBER_10_MEMBER_1_MEMBER_10_FILL">
<path fill="#80CCE6" stroke="none" d="
M -87.75 -49.25
L -100.75 -49.25 -100.75 -36.25 -87.75 -36.25 -87.75 -49.25 Z"/>
</g>

<g id="iconos_1_Layer1_0_MEMBER_0_MEMBER_11_FILL">
<path fill="#80CCE6" stroke="none" d="
M -87.75 -49.25
L -100.75 -49.25 -100.75 -36.25 -87.75 -36.25 -87.75 -49.25 Z"/>
</g>

<g id="iconos_1_Layer1_0_MEMBER_0_MEMBER_12_FILL">
<path fill="#80CCE6" stroke="none" d="
M -87.75 -49.25
L -100.75 -49.25 -100.75 -36.25 -87.75 -36.25 -87.75 -49.25 Z"/>
</g>

<g id="iconos_1_Layer1_0_MEMBER_0_MEMBER_13_FILL">
<path fill="#80CCE6" stroke="none" d="
M -87.75 -49.25
L -100.75 -49.25 -100.75 -36.25 -87.75 -36.25 -87.75 -49.25 Z"/>
</g>

<g id="iconos_1_Layer1_0_MEMBER_0_MEMBER_14_FILL">
<path fill="#80CCE6" stroke="none" d="
M -87.75 -49.25
L -100.75 -49.25 -100.75 -36.25 -87.75 -36.25 -87.75 -49.25 Z"/>
</g>

<g id="iconos_1_Layer1_0_MEMBER_0_MEMBER_15_FILL">
<path fill="#80CCE6" stroke="none" d="
M -87.75 -49.25
L -100.75 -49.25 -100.75 -36.25 -87.75 -36.25 -87.75 -49.25 Z"/>
</g>

<g id="iconos_1_Layer1_0_MEMBER_0_MEMBER_16_FILL">
<path fill="#80CCE6" stroke="none" d="
M -87.75 -49.25
L -100.75 -49.25 -100.75 -36.25 -87.75 -36.25 -87.75 -49.25 Z"/>
</g>

<g id="iconos_1_Layer1_0_MEMBER_0_MEMBER_17_FILL">
<path fill="#80CCE6" stroke="none" d="
M -87.75 -49.25
L -100.75 -49.25 -100.75 -36.25 -87.75 -36.25 -87.75 -49.25 Z"/>
</g>

<g id="iconos_1_Layer1_0_MEMBER_0_MEMBER_18_FILL">
<path fill="#000000" stroke="none" d="
M -20.55 33.1
L -27.05 33.1 -27.05 43.2 -20.55 43.2 -20.55 33.1 Z"/>
</g>

<g id="iconos_1_Layer1_0_MEMBER_0_MEMBER_19_FILL">
<path fill="#000000" stroke="none" d="
M 3.45 43.2
L 3.45 33.1 -3.05 33.1 -3.05 43.2 3.45 43.2 Z"/>
</g>

<g id="iconos_1_Layer0_0_FILL">
<path fill="#004966" fill-opacity="0" stroke="none" d="
M 60 -60
L -60 -60 -60 60 60 60 60 -60 Z"/>
</g>

<path id="iconos_1_Layer1_0_MEMBER_0_MEMBER_0_1_STROKES" stroke="#000000" stroke-width="1" stroke-linejoin="round" stroke-linecap="round" fill="none" d="
M 7.2 43.2
L 37.8 43.2 40.35 -0.5 5.1 -0.5 7.2 43.2 Z"/>

<path id="iconos_1_Layer1_0_MEMBER_0_MEMBER_9_1_STROKES" stroke="#000000" stroke-width="1" stroke-linejoin="round" stroke-linecap="round" fill="none" d="
M -7.2 43.2
L -37.8 43.2 -40.35 -0.5 -5.1 -0.5 -7.2 43.2 Z"/>

<path id="iconos_1_Layer1_0_MEMBER_0_MEMBER_10_MEMBER_0_1_STROKES" stroke="#000000" stroke-width="1" stroke-linejoin="round" stroke-linecap="round" fill="none" d="
M 13 43.2
L -12.8 43.2 -14.95 -23.6 14.75 -23.6 13 43.2 Z"/>
</defs>

<g transform="matrix( 0.7499847412109375, 0, 0, 0.7499847412109375, 45,45) ">
<g transform="matrix( 1, 0, 0, 1, 0,-7.4) ">
<use xlink:href="#iconos_1_Layer1_0_MEMBER_0_MEMBER_0_FILL"/>

<use xlink:href="#iconos_1_Layer1_0_MEMBER_0_MEMBER_0_1_STROKES"/>
</g>

<g transform="matrix( -0.2642364501953125, 0, 0, 0.245574951171875, 7.85,8.1) ">
<use xlink:href="#iconos_1_Layer1_0_MEMBER_0_MEMBER_1_FILL"/>
</g>

<g transform="matrix( -0.2642364501953125, 0, 0, 0.245574951171875, 7.85,13.9) ">
<use xlink:href="#iconos_1_Layer1_0_MEMBER_0_MEMBER_2_FILL"/>
</g>

<g transform="matrix( -0.2642364501953125, 0, 0, 0.245574951171875, 7.85,19.75) ">
<use xlink:href="#iconos_1_Layer1_0_MEMBER_0_MEMBER_3_FILL"/>
</g>

<g transform="matrix( -0.2642364501953125, 0, 0, 0.245574951171875, 2.05,13.9) ">
<use xlink:href="#iconos_1_Layer1_0_MEMBER_0_MEMBER_4_FILL"/>
</g>

<g transform="matrix( -0.2642364501953125, 0, 0, 0.245574951171875, -3.05,24.2) ">
<use xlink:href="#iconos_1_Layer1_0_MEMBER_0_MEMBER_5_FILL"/>
</g>

<g transform="matrix( -0.2642364501953125, 0, 0, 0.245574951171875, -3.05,30.5) ">
<use xlink:href="#iconos_1_Layer1_0_MEMBER_0_MEMBER_6_FILL"/>
</g>

<g transform="matrix( -0.2642364501953125, 0, 0, 0.245574951171875, 7.85,31.05) ">
<use xlink:href="#iconos_1_Layer1_0_MEMBER_0_MEMBER_7_FILL"/>
</g>

<g transform="matrix( 1, 0, 0, 1, 0,-7.4) ">
<use xlink:href="#iconos_1_Layer1_0_MEMBER_0_MEMBER_8_FILL"/>
</g>

<g transform="matrix( 1, 0, 0, 1, 0,-7.4) ">
<use xlink:href="#iconos_1_Layer1_0_MEMBER_0_MEMBER_9_FILL"/>

<use xlink:href="#iconos_1_Layer1_0_MEMBER_0_MEMBER_9_1_STROKES"/>
</g>

<g transform="matrix( 1, 0, 0, 1, 0,-7.4) ">
<use xlink:href="#iconos_1_Layer1_0_MEMBER_0_MEMBER_10_MEMBER_0_FILL"/>

<use xlink:href="#iconos_1_Layer1_0_MEMBER_0_MEMBER_10_MEMBER_0_1_STROKES"/>
</g>

<g transform="matrix( 0.2642364501953125, 0, 0, 0.245574951171875, 18.55,-15.15) ">
<use xlink:href="#iconos_1_Layer1_0_MEMBER_0_MEMBER_10_MEMBER_1_MEMBER_0_FILL"/>
</g>

<g transform="matrix( 0.2642364501953125, 0, 0, 0.245574951171875, 18.55,-8.9) ">
<use xlink:href="#iconos_1_Layer1_0_MEMBER_0_MEMBER_10_MEMBER_1_MEMBER_1_FILL"/>
</g>

<g transform="matrix( 0.2642364501953125, 0, 0, 0.245574951171875, 25.3,-15.15) ">
<use xlink:href="#iconos_1_Layer1_0_MEMBER_0_MEMBER_10_MEMBER_1_MEMBER_2_FILL"/>
</g>

<g transform="matrix( 0.2642364501953125, 0, 0, 0.245574951171875, 18.55,-3.15) ">
<use xlink:href="#iconos_1_Layer1_0_MEMBER_0_MEMBER_10_MEMBER_1_MEMBER_3_FILL"/>
</g>

<g transform="matrix( 0.2642364501953125, 0, 0, 0.245574951171875, 18.55,23.45) ">
<use xlink:href="#iconos_1_Layer1_0_MEMBER_0_MEMBER_10_MEMBER_1_MEMBER_4_FILL"/>
</g>

<g transform="matrix( 0.2642364501953125, 0, 0, 0.245574951171875, 25.3,8.75) ">
<use xlink:href="#iconos_1_Layer1_0_MEMBER_0_MEMBER_10_MEMBER_1_MEMBER_5_FILL"/>
</g>

<g transform="matrix( 0.2642364501953125, 0, 0, 0.245574951171875, 25.3,2.35) ">
<use xlink:href="#iconos_1_Layer1_0_MEMBER_0_MEMBER_10_MEMBER_1_MEMBER_6_FILL"/>
</g>

<g transform="matrix( 0.2642364501953125, 0, 0, 0.245574951171875, 18.55,8.75) ">
<use xlink:href="#iconos_1_Layer1_0_MEMBER_0_MEMBER_10_MEMBER_1_MEMBER_7_FILL"/>
</g>

<g transform="matrix( 0.2642364501953125, 0, 0, 0.245574951171875, 31,14.9) ">
<use xlink:href="#iconos_1_Layer1_0_MEMBER_0_MEMBER_10_MEMBER_1_MEMBER_8_FILL"/>
</g>

<g transform="matrix( 0.2642364501953125, 0, 0, 0.245574951171875, 18.7,29.45) ">
<use xlink:href="#iconos_1_Layer1_0_MEMBER_0_MEMBER_10_MEMBER_1_MEMBER_9_FILL"/>
</g>

<g transform="matrix( 0.2642364501953125, 0, 0, 0.245574951171875, 32.85,34.4) ">
<use xlink:href="#iconos_1_Layer1_0_MEMBER_0_MEMBER_10_MEMBER_1_MEMBER_10_FILL"/>
</g>

<g transform="matrix( 0.2642364501953125, 0, 0, 0.245574951171875, -7.85,8.1) ">
<use xlink:href="#iconos_1_Layer1_0_MEMBER_0_MEMBER_11_FILL"/>
</g>

<g transform="matrix( 0.2642364501953125, 0, 0, 0.245574951171875, -7.85,13.9) ">
<use xlink:href="#iconos_1_Layer1_0_MEMBER_0_MEMBER_12_FILL"/>
</g>

<g transform="matrix( 0.2642364501953125, 0, 0, 0.245574951171875, -7.85,19.75) ">
<use xlink:href="#iconos_1_Layer1_0_MEMBER_0_MEMBER_13_FILL"/>
</g>

<g transform="matrix( 0.2642364501953125, 0, 0, 0.245574951171875, -2.05,13.9) ">
<use xlink:href="#iconos_1_Layer1_0_MEMBER_0_MEMBER_14_FILL"/>
</g>

<g transform="matrix( 0.2642364501953125, 0, 0, 0.245574951171875, 3.05,24.2) ">
<use xlink:href="#iconos_1_Layer1_0_MEMBER_0_MEMBER_15_FILL"/>
</g>

<g transform="matrix( 0.2642364501953125, 0, 0, 0.245574951171875, 3.05,30.5) ">
<use xlink:href="#iconos_1_Layer1_0_MEMBER_0_MEMBER_16_FILL"/>
</g>

<g transform="matrix( 0.2642364501953125, 0, 0, 0.245574951171875, -7.85,31.05) ">
<use xlink:href="#iconos_1_Layer1_0_MEMBER_0_MEMBER_17_FILL"/>
</g>

<g transform="matrix( 1, 0, 0, 1, 0,-7.4) ">
<use xlink:href="#iconos_1_Layer1_0_MEMBER_0_MEMBER_18_FILL"/>
</g>

<g transform="matrix( 1, 0, 0, 1, 0,-7.4) ">
<use xlink:href="#iconos_1_Layer1_0_MEMBER_0_MEMBER_19_FILL"/>
</g>

<g transform="matrix( 1, 0, 0, 1, 0,0) ">
<use xlink:href="#iconos_1_Layer0_0_FILL"/>
</g>
</g>
</svg>
