
<svg xmlns="http://www.w3.org/2000/svg" version="1.1" xmlns:xlink="http://www.w3.org/1999/xlink" preserveAspectRatio="none" x="0px" y="0px" width="90px" height="90px" viewBox="0 0 90 90">
<defs>
<g id="iconos_2_Layer1_0_FILL">
<path fill="#0099CC" stroke="none" d="
M -0.75 24.7
Q -4.85 24.5 -7.95 22.05 -18.9 21.1 -31.25 13.3 -31.05 18.95 -28.95 23.95
L -28.95 24.05
Q -28.5 25.15 -27.8 26.3
L -27.8 26.4
Q -26.65 28.7 -25 30.75 -23.7 32.5 -22.2 34 -21.6 34.55 -20.85 35.25 -20.75 35.1 -20.6 35.1 -13.7 33 -8.65 30.3 -4.85 28.2 -2.15 25.95
L -2.1 25.95
Q -1.5 25.3 -0.75 24.7
M 22.15 -10.3
Q 17.7 -14.75 12.35 -16.85 10.85 -17.55 9.2 -18.05 8.65 -17.7 8.3 -17.15
L 8.15 -17.15
Q -0.9 -9.65 -3.9 -0.4 -2.1 -0.95 -0.05 -0.95 1.35 -0.95 2.7 -0.7 4.95 -1.7 7.4 -2.4 16.5 -5.2 26.8 -4.35 24.8 -7.5 22.15 -10.3 Z"/>

<path fill="#004966" stroke="none" d="
M -0.05 -19.35
Q -6.7 -19.35 -12.35 -16.85 -15 -15.8 -17.35 -14.25 -17.75 -7.8 -15.6 -1.35 -14.25 2.85 -11.9 6.85 -11 4.7 -9.2 2.85 -8.5 2.15 -7.8 1.7 -7.55 0.1 -6.95 -1.35 -4.1 -11.1 5.1 -19 2.7 -19.35 -0.05 -19.35
M 9.6 20.35
Q 9.35 20.65 9.05 20.9
L 9.05 21
Q 6.8 23.2 4.1 24.15 3.5 24.9 2.9 25.65 1.5 27.05 0.15 28.55 -3 31.1 -6.95 33.2
L -7.1 33.2
Q -11.75 35.7 -17.7 37.65 -10.05 43.15 -0.05 43.15 3.45 43.15 6.7 42.5 6.7 42.25 6.8 41.9 8.65 36.7 9.35 31.5 9.6 29.4 9.7 27.2 9.8 25.85 9.8 24.6
L 9.8 24.5
Q 9.8 22.4 9.6 20.35
M 28.9 -0.2
Q 28.75 -0.55 28.7 -0.75 17.9 -2.25 8.35 0.7 7.7 1 7.1 1.2 8.1 1.85 9.05 2.85 10.35 4.1 11.2 5.65 23 10.4 29.95 21 31.25 16.75 31.25 11.95 31.25 5.4 28.9 -0.2 Z"/>

<path fill="#80CCE6" stroke="none" d="
M -22.15 -10.3
Q -26.65 -5.7 -28.95 -0.2 -30.75 4.3 -31.15 9.35 -20.75 16.4 -11.2 18.15 -12.85 15.4 -12.85 11.95 -12.85 11.75 -12.85 11.6 -16.95 5.65 -18.85 -0.35 -20.75 -5.9 -20.85 -11.55 -21.6 -10.95 -22.2 -10.3
L -22.15 -10.3
M 12.7 9.9
Q 12.8 10.85 12.8 11.95 12.8 13.7 12.35 15.4 13.15 20 13.15 24.5 13.15 25.95 13.15 27.25 13 29.6 12.6 32 11.95 36.7 10.55 41.35 16.95 39.15 22.15 34 23.7 32.35 24.95 30.75 26.6 28.55 27.8 26.4
L 27.8 26.3
Q 28.2 25.65 28.5 24.95 22.75 14.85 12.7 9.9 Z"/>
</g>

<g id="iconos_2_Layer0_0_FILL">
<path fill="#004966" fill-opacity="0" stroke="none" d="
M 60 -60
L -60 -60 -60 60 60 60 60 -60 Z"/>
</g>
</defs>

<g transform="matrix( 0.7499847412109375, 0, 0, 0.7499847412109375, 45,45) ">
<g transform="matrix( 1, 0, 0, 1, 0,-11.9) ">
<use xlink:href="#iconos_2_Layer1_0_FILL"/>
</g>

<g transform="matrix( 1, 0, 0, 1, 0,0) ">
<use xlink:href="#iconos_2_Layer0_0_FILL"/>
</g>
</g>
</svg>
