
<svg xmlns="http://www.w3.org/2000/svg" version="1.1" xmlns:xlink="http://www.w3.org/1999/xlink" preserveAspectRatio="none" x="0px" y="0px" width="90px" height="90px" viewBox="0 0 90 90">
<defs>
<g id="Layer1_0_MEMBER_0_FILL">
<path fill="#0099CC" stroke="none" d="
M 6.1 -22.6
Q 3.15 -23.1 0 -23.1 -3.1 -23.1 -6 -22.6 -6.05 -22.35 -6.05 -22.1
L -6.05 -15.4
Q -10.35 -11.55 -15 -11.65
L -19.75 -16.4
Q -19.95 -16.6 -20.15 -16.8 -22.55 -15.05 -24.75 -12.8 -26.95 -10.65 -28.7 -8.25 -28.5 -8 -28.3 -7.85
L -23.65 -3.15
Q -22.85 3.55 -27.3 5.85
L -34 5.85
Q -34.25 5.85 -34.5 5.9 -35 8.75 -35 11.9 -35 15.05 -34.5 18 -34.25 18 -34 18
L -27.4 18
Q -23.35 19.8 -23.65 27
L -28.3 31.65
Q -28.5 31.85 -28.7 32.1 -26.95 34.45 -24.75 36.6 -22.55 38.85 -20.15 40.6 -19.95 40.4 -19.75 40.2
L -15.1 35.6
Q -10.15 34.8 -6.05 39.25
L -6.05 45.9
Q -6.05 46.15 -6 46.45 -3.1 46.9 0 46.9 3.15 46.9 6.1 46.45 6.1 46.15 6.1 45.9
L 6.1 39.3
Q 10.4 34.85 15.05 35.55
L 19.75 40.2
Q 19.95 40.4 20.15 40.6 22.55 38.8 24.7 36.6 26.95 34.4 28.7 32.05 28.55 31.85 28.35 31.65
L 23.65 27
Q 23.75 22.45 27.3 18
L 34 18
Q 34.25 18 34.55 18 35 15.05 35 11.9 35 8.75 34.55 5.9 34.25 5.85 34 5.85
L 27.3 5.85
Q 21.85 1.6 23.6 -3.05
L 28.35 -7.85
Q 28.55 -8 28.75 -8.2 26.95 -10.6 24.7 -12.8 22.55 -15 20.15 -16.75 19.95 -16.6 19.75 -16.4
L 15.05 -11.65
Q 10.25 -10.45 6.1 -15.35
L 6.1 -22.1
Q 6.1 -22.35 6.1 -22.6 Z"/>
</g>

<g id="Layer1_0_MEMBER_1_FILL">
<path fill="#80CCE6" stroke="none" d="
M 8.95 -6.7
Q -1.1 -7.6 -8.85 -1.1 -16.6 5.45 -17.5 15.5 -18.4 25.6 -11.9 33.35 -5.35 41.1 4.7 42 14.8 42.9 22.55 36.35 30.3 29.85 31.2 19.75 32.1 9.7 25.6 1.95 19.05 -5.8 8.95 -6.7 Z"/>
</g>

<g id="Layer1_0_MEMBER_2_FILL">
<path fill="#004966" stroke="none" d="
M 9.8 -0.65
L 0.35 -0.85 -5.9 14.35 0.75 14.35 -5.45 28.55 9.1 10.85 2.8 10.85 9.8 -0.65 Z"/>
</g>

<g id="Layer0_0_FILL">
<path fill="#004966" fill-opacity="0" stroke="none" d="
M 60 -60
L -60 -60 -60 60 60 60 60 -60 Z"/>
</g>

<path id="Layer1_0_MEMBER_2_1_STROKES" stroke="#004966" stroke-width="1" stroke-linejoin="round" stroke-linecap="round" fill="none" d="
M 0.35 -0.85
L -5.9 14.35 0.75 14.35 -5.45 28.55 9.1 10.85 2.8 10.85 9.8 -0.65 0.35 -0.85 Z"/>
</defs>

<g transform="matrix( 0.7499847412109375, 0, 0, 0.7499847412109375, 45,45) ">
<g transform="matrix( 1, 0, 0, 1, 0,-11.9) ">
<use xlink:href="#Layer1_0_MEMBER_0_FILL"/>
</g>

<g transform="matrix( 0.807769775390625, 0, 0, 0.807769775390625, -5.45,-14.1) ">
<use xlink:href="#Layer1_0_MEMBER_1_FILL"/>
</g>

<g transform="matrix( 1, 0, 0, 1, 0,-11.9) ">
<use xlink:href="#Layer1_0_MEMBER_2_FILL"/>

<use xlink:href="#Layer1_0_MEMBER_2_1_STROKES"/>
</g>

<g transform="matrix( 1, 0, 0, 1, 0,0) ">
<use xlink:href="#Layer0_0_FILL"/>
</g>
</g>
</svg>
