
<svg xmlns="http://www.w3.org/2000/svg" version="1.1" xmlns:xlink="http://www.w3.org/1999/xlink" preserveAspectRatio="none" x="0px" y="0px" width="150px" height="43px" viewBox="0 0 150 43">
<defs>
<radialGradient id="Gradient_1" gradientUnits="userSpaceOnUse" cx="0" cy="0" r="74.98387847564301" fx="9.725490196078434" fy="36.36078431372549" gradientTransform="matrix( -0.25838887496721813, -0.9660409873774382, 9.96080777873627, -2.668907024661395, 0,-38.5) " spreadMethod="pad">
<stop  offset="48.23529411764706%" stop-color="#00B9FF"/>

<stop  offset="90.58823529411765%" stop-color="#0079AE"/>

<stop  offset="100%" stop-color="#00699F"/>
</radialGradient>

<g id="lhletras_0_Layer0_0_MEMBER_0_FILL">
<path fill="#FFFFFF" stroke="none" d="
M -38.3 -90.55
L -57.5 -90.55 -57.5 13.5 -38.3 13.5 -38.3 -90.55
M -99.65 -87
Q -104.35 -88.8 -111.15 -89.65 -117.9 -90.55 -125.75 -90.55
L -157.15 -90.55 -157.15 13.5 -138.1 13.5 -138.1 -26.85 -125.3 -26.85 -97 13.5 -74 13.5 -104.95 -29.4 -104.95 -29.65
Q -92.55 -33.35 -86.4 -40.85 -80.5 -48.4 -80.5 -59.15 -80.5 -69.6 -85.2 -76.7 -90.35 -83.45 -99.65 -87
M -114.25 -74.05
Q -110.4 -73.45 -107.75 -72.25 -103.35 -70.2 -101.55 -66.95 -99.95 -64 -99.95 -59.6 -99.95 -55 -102.3 -50.9 -104.35 -47.2 -109.95 -45 -113.35 -43.8 -117.65 -43.4 -122.35 -42.8 -128.85 -42.8
L -138.1 -42.8 -138.1 -74.5 -124.7 -74.5
Q -118.65 -74.5 -114.25 -74.05
M -265.9 -77.45
Q -272.7 -70.2 -275.8 -60.2 -279.2 -50.6 -279.2 -38.65 -279.2 -26.7 -275.8 -16.7 -272.7 -6.95 -265.9 0.1 -259.7 7.45 -250 11.45 -240.7 15.45 -228.6 15.45 -216.7 15.45 -206.95 11.45 -197.65 7.45 -191.05 0.1 -184.7 -6.95 -181.3 -16.7 -177.9 -26.7 -177.9 -38.65 -177.9 -50.6 -181.3 -60.2 -184.7 -70.2 -191.05 -77.45 -197.65 -84.8 -206.95 -88.65 -216.7 -92.45 -228.6 -92.45 -240.7 -92.45 -250 -88.65 -259.7 -84.8 -265.9 -77.45
M -257.05 -55
Q -255 -62.25 -250.75 -66.95 -246.6 -71.85 -241 -74.2 -235.4 -76.25 -228.6 -76.25 -221.7 -76.25 -216.1 -74.2 -210.35 -71.85 -206.2 -66.95 -202.1 -62.25 -199.85 -55 -197.5 -47.95 -197.5 -38.65 -197.5 -29.25 -199.85 -22 -202.1 -15.1 -206.2 -10.05 -210.35 -5.35 -216.1 -2.85 -221.7 -0.65 -228.6 -0.65 -235.4 -0.65 -241 -2.85 -246.6 -5.35 -250.75 -10.05 -255 -15.1 -257.05 -22 -259.7 -29.25 -259.7 -38.65 -259.7 -47.95 -257.05 -55
M -335.2 -90.55
L -354.35 -90.55 -354.35 13.5 -286.25 13.5 -286.25 -2.55 -335.2 -2.55 -335.2 -90.55
M 303.2 -2.55
L 303.2 -31.9 344.35 -31.9 344.35 -47.65 303.2 -47.65 303.2 -74.5 351.25 -74.5 351.25 -90.55 284.05 -90.55 284.05 13.5 354.35 13.5 354.35 -2.55 303.2 -2.55
M 183.35 -90.55
L 183.35 -74.5 216.7 -74.5 216.7 13.5 235.85 13.5 235.85 -74.5 269.3 -74.5 269.3 -90.55 183.35 -90.55
M 95.35 -63.45
L 95.8 -63.45
Q 105.4 -47.2 114.1 -34.55
L 148.15 13.5 168.2 13.5 168.2 -90.55 149 -90.55 149 -43.55
Q 149 -34.25 149.9 -13.9
L 149.6 -13.9
Q 142.7 -26.15 131.2 -42.05
L 97 -90.55 77.25 -90.55 77.25 13.5 96.25 13.5 96.25 -33.8
Q 96.25 -44.1 95.35 -63.45
M 53.95 -74.5
L 53.95 -90.55 -13.4 -90.55 -13.4 13.5 56.75 13.5 56.75 -2.55 5.75 -2.55 5.75 -31.9 47.15 -31.9 47.15 -47.65 5.75 -47.65 5.75 -74.5 53.95 -74.5 Z"/>
</g>

<g id="lhletras_0_Layer0_0_MEMBER_1_FILL">
<path fill="#FFFFFF" stroke="none" d="
M -305.4 91.65
L -305.4 60.85 -311 60.85 -311 73.5 -325.3 73.5 -325.3 60.85 -330.9 60.85 -330.9 91.65 -325.3 91.65 -325.3 78.2 -311 78.2 -311 91.65 -305.4 91.65
M -219.2 65.55
L -219.2 60.85 -239.1 60.85 -239.1 91.65 -218.3 91.65 -218.3 86.9 -233.5 86.9 -233.5 78.2 -221.1 78.2 -221.1 73.5 -233.5 73.5 -233.5 65.55 -219.2 65.55
M -136.2 61.85
Q -137.5 61.4 -139.6 61.15 -141.65 60.85 -143.85 60.85
L -153.3 60.85 -153.3 91.65 -147.7 91.65 -147.7 79.7 -143.7 79.7 -135.45 91.65 -128.7 91.65 -137.8 78.95 -137.8 78.8
Q -134.15 77.8 -132.2 75.55 -130.45 73.35 -130.45 70.1 -130.45 67 -131.9 64.95 -133.4 62.9 -136.2 61.85
M -140.6 65.7
Q -139.45 65.85 -138.55 66.3 -137.4 66.85 -136.8 67.75 -136.35 68.8 -136.35 69.95 -136.35 71.45 -136.95 72.5 -137.65 73.65 -139.3 74.25 -140.2 74.7 -141.5 74.85 -143 75 -144.9 75
L -147.7 75 -147.7 65.55 -143.55 65.55
Q -141.8 65.55 -140.6 65.7
M -59.4 68.05
L -59.1 68.05
Q -58.8 69.4 -58.2 71 -57.65 72.6 -57.05 74.25
L -50.7 91.65 -47 91.65 -40.7 74.25
Q -40.1 72.6 -39.65 71 -39.05 69.4 -38.6 68.05
L -38.45 68.05
Q -38.75 72.6 -38.75 76
L -38.75 91.65 -33.15 91.65 -33.15 60.85 -41 60.85 -46.3 75.55
Q -47.9 79.7 -48.8 83.4
L -48.95 83.4
Q -50.1 79.1 -51.45 75.4
L -56.9 60.85 -64.7 60.85 -64.7 91.65 -59.1 91.65 -59.1 76
Q -59.1 72.35 -59.4 68.05
M 30.2 91.65
L 36.1 91.65 39.2 83.85 50.85 83.85 53.8 91.65 59.85 91.65 47.6 60.85 42.45 60.85 30.2 91.65
M 44.95 68.2
L 45.1 68.2
Q 46.75 73.05 47.9 76.3
L 48.95 79.1 41 79.1 42 76.3
Q 43.35 73.05 44.95 68.2
M 150.05 60.85
L 144.45 60.85 144.45 74.85
Q 144.45 77.5 144.6 83.55
L 144.45 83.55
Q 142.4 79.85 139.15 75.15
L 128.95 60.85 123.1 60.85 123.1 91.65 128.7 91.65 128.7 77.65
Q 128.7 74.55 128.4 68.95
L 128.55 68.95
Q 131.5 73.8 134.15 77.5
L 144.15 91.65 150.05 91.65 150.05 60.85
M 245 76.15
Q 245 72.75 244.1 69.8 243.05 66.85 241.15 64.65 239.25 62.6 236.45 61.4 233.65 60.25 230.1 60.25 226.4 60.25 223.6 61.4 220.8 62.6 218.9 64.65 216.95 66.85 216.1 69.8 215.05 72.75 215.05 76.15 215.05 79.7 216.1 82.65 216.95 85.6 218.9 87.8 220.8 89.85 223.6 91.05 226.4 92.25 230.1 92.25 233.65 92.25 236.45 91.05 239.25 89.85 241.15 87.8 243.05 85.6 244.1 82.65 245 79.7 245 76.15
M 226.4 65.7
Q 228.05 64.95 230.1 64.95 232 64.95 233.8 65.7 235.4 66.45 236.6 67.75 237.75 69.25 238.5 71.3 239.25 73.35 239.25 76.15 239.25 79.1 238.5 81.15 237.75 83.25 236.6 84.7 235.4 86.05 233.8 86.75 232 87.5 230.1 87.5 228.05 87.5 226.4 86.75 224.65 86.05 223.45 84.7 222.3 83.25 221.55 81.15 220.8 79.1 220.8 76.15 220.8 73.35 221.55 71.3 222.3 69.25 223.45 67.75 224.65 66.45 226.4 65.7
M 329.45 66.85
L 329.45 62
Q 327.65 61.25 325.15 60.7 322.65 60.25 320.15 60.25 317.8 60.25 315.75 60.85 313.8 61.4 312.35 62.6 310.85 63.8 310 65.55 309.1 67.45 309.1 69.8 309.1 72.05 309.85 73.5 310.55 75 311.9 76 313.1 76.9 314.7 77.5 316.3 78.1 318.25 78.35 319.55 78.65 320.75 78.95 322.05 79.25 322.95 79.7 324 80.15 324.55 80.9 325.15 81.6 325.15 82.8 325.15 84.1 324.55 85 323.85 85.9 322.95 86.5 321.75 87.05 320.6 87.2 319.25 87.5 317.95 87.5 315.6 87.5 313.5 87.05 311.3 86.5 308.95 85.6
L 308.95 90.3
Q 310.55 91.2 313.1 91.8 315.45 92.25 317.95 92.25 320.9 92.25 323.25 91.65 325.75 91.05 327.4 89.85 329.15 88.7 330.05 86.9 330.9 85 330.9 82.5 330.9 80.15 330.2 78.65 329.3 77.05 327.95 76 326.65 75.15 324.7 74.55 322.95 73.95 321.05 73.65 319.85 73.35 318.7 73.05 317.65 72.75 316.75 72.35 315.9 71.75 315.45 71 314.85 70.25 314.85 69.1 314.85 67 316.45 66 317.95 64.95 320.75 64.95 322.65 64.95 324.85 65.4 327.1 65.85 329.45 66.85 Z"/>
</g>

<path id="lhletras_0_Layer0_0_MEMBER_0_1_STROKES" stroke="url(#Gradient_1)" stroke-width="2" stroke-linejoin="round" stroke-linecap="round" fill="none" d="
M 13.287399291992188 -5.792672729492187
L 131.14085388183594 -5.792672729492187 131.14085388183594 31.296502685546876 -30.96541748046875 31.296502685546876 -30.96541748046875 -209.14765319824218 124.67046813964845 -209.14765319824218 124.67046813964845 -172.05847778320313 13.287399291992188 -172.05847778320313 13.287399291992188 -110.01210021972656 108.95667419433593 -110.01210021972656 108.95667419433593 -73.61618041992188 13.287399291992188 -73.61618041992188 13.287399291992188 -5.792672729492187 Z
M 303.18378906249995 -97.07132873535156
Q 329.75858764648433 -60.32878112792968 345.703466796875 -32.020843505859375
L 346.3967224121094 -32.020843505859375
Q 344.31695556640625 -79.04668273925782 344.31695556640625 -100.53760681152343
L 344.31695556640625 -209.14765319824218 388.6853149414062 -209.14765319824218 388.6853149414062 31.296502685546876 342.3527313232422 31.296502685546876 263.6682189941406 -79.73993835449218
Q 243.56380615234377 -108.97221679687502 221.37962646484374 -146.52356262207033
L 220.33974304199216 -146.52356262207033
Q 222.4195098876953 -101.80857543945314 222.4195098876953 -78.00679931640624
L 222.4195098876953 31.296502685546876 178.51332092285156 31.296502685546876 178.51332092285156 -209.14765319824218 224.15264892578125 -209.14765319824218 303.18378906249995 -97.07132873535156 Z
M 545.0144561767578 31.296502685546876
L 500.76163940429683 31.296502685546876 500.76163940429683 -172.05847778320313 423.69472351074216 -172.05847778320313 423.69472351074216 -209.14765319824218 622.3124572753907 -209.14765319824218 622.3124572753907 -172.05847778320313 545.0144561767578 -172.05847778320313 545.0144561767578 31.296502685546876 Z
M 700.650341796875 -5.792672729492187
L 818.850424194336 -5.792672729492187 818.850424194336 31.296502685546876 656.3975250244141 31.296502685546876 656.3975250244141 -209.14765319824218 811.6867828369141 -209.14765319824218 811.6867828369141 -172.05847778320313 700.650341796875 -172.05847778320313 700.650341796875 -110.01210021972656 795.7419036865235 -110.01210021972656 795.7419036865235 -73.61618041992188 700.650341796875 -73.61618041992188 700.650341796875 -5.792672729492187 Z
M -774.597607421875 -209.14765319824218
L -774.597607421875 -5.792672729492187 -661.4813995361328 -5.792672729492187 -661.4813995361328 31.296502685546876 -818.850424194336 31.296502685546876 -818.850424194336 -209.14765319824218 -774.597607421875 -209.14765319824218 Z
M -411.1005798339844 -89.21443176269531
Q -411.1005798339844 -61.59974975585937 -418.95747680664067 -38.49122924804687 -426.81437377929683 -15.960421752929689 -441.48828430175786 0.331085205078125 -456.7399078369141 17.315847778320315 -478.23083190917964 26.55925598144531 -500.76163940429683 35.80266418457031 -528.2607788085937 35.80266418457031 -556.2220886230468 35.80266418457031 -577.7130126953125 26.55925598144531 -600.1282775878906 17.315847778320315 -614.4555603027343 0.331085205078125 -630.1693542480468 -15.960421752929689 -637.3329956054688 -38.49122924804687 -645.189892578125 -61.59974975585937 -645.189892578125 -89.21443176269531 -645.189892578125 -116.82911376953126 -637.3329956054688 -139.01329345703127 -630.1693542480468 -162.12181396484377 -614.4555603027343 -178.87549133300783 -600.1282775878906 -195.86025390625 -577.7130126953125 -204.75703430175784 -556.2220886230468 -213.53827209472658 -528.2607788085937 -213.53827209472658 -500.76163940429683 -213.53827209472658 -478.23083190917964 -204.75703430175784 -456.7399078369141 -195.86025390625 -441.48828430175786 -178.87549133300783 -426.81437377929683 -162.12181396484377 -418.95747680664067 -139.01329345703127 -411.1005798339844 -116.82911376953126 -411.1005798339844 -89.21443176269531 Z
M -456.3932800292969 -89.21443176269531
Q -456.3932800292969 -110.70535583496095 -461.8237823486328 -126.99686279296876 -467.0231994628906 -143.75054016113282 -476.4976928710937 -154.6115447998047 -486.0877288818359 -165.9347198486328 -499.3751281738281 -171.36522216796877 -512.3158996582031 -176.10246887207032 -528.2607788085937 -176.10246887207032 -543.9745727539063 -176.10246887207032 -556.9153442382812 -171.36522216796877 -569.8561157226562 -165.9347198486328 -579.4461517333984 -154.6115447998047 -589.2672729492188 -143.75054016113282 -594.0045196533204 -126.99686279296876 -600.1282775878906 -110.70535583496095 -600.1282775878906 -89.21443176269531 -600.1282775878906 -67.49242248535157 -594.0045196533204 -50.7387451171875 -589.2672729492188 -34.79386596679687 -579.4461517333984 -23.124063110351564 -569.8561157226562 -12.263058471679686 -556.9153442382812 -6.485928344726563 -543.9745727539063 -1.4020538330078125 -528.2607788085937 -1.4020538330078125 -512.3158996582031 -1.4020538330078125 -499.3751281738281 -6.485928344726563 -486.0877288818359 -12.263058471679686 -476.4976928710937 -23.124063110351564 -467.0231994628906 -34.79386596679687 -461.8237823486328 -50.7387451171875 -456.3932800292969 -67.49242248535157 -456.3932800292969 -89.21443176269531 Z
M -297.75328674316404 -98.8044677734375
Q -282.7327484130859 -98.8044677734375 -271.8717437744141 -100.19097900390625 -261.93507995605466 -101.11531982421874 -254.07818298339845 -103.88834228515626 -241.13741149902341 -108.97221679687502 -236.40016479492186 -117.52236938476562 -230.96966247558595 -126.99686279296876 -230.96966247558595 -137.6267822265625 -230.96966247558595 -147.79453125 -234.66702575683593 -154.6115447998047 -238.82655944824216 -162.12181396484377 -248.9943084716797 -166.85906066894532 -255.11806640625002 -169.63208312988283 -264.0148468017578 -171.01859436035156 -274.18259582519534 -172.05847778320313 -288.1632507324219 -172.05847778320313
L -319.1286682128906 -172.05847778320313 -319.1286682128906 -98.8044677734375 -297.75328674316404 -98.8044677734375 Z
M -186.02359008789062 -136.58689880371094
Q -186.02359008789062 -111.7452392578125 -199.65761718750002 -94.29830627441407 -213.86935729980468 -76.9669158935547 -242.5239227294922 -68.41676330566406
L -242.5239227294922 -67.83905029296875 -171.0030517578125 31.296502685546876 -224.15264892578125 31.296502685546876 -289.5497619628906 -61.94637756347657 -319.1286682128906 -61.94637756347657 -319.1286682128906 31.296502685546876 -363.15039978027346 31.296502685546876 -363.15039978027346 -209.14765319824218 -290.5896453857422 -209.14765319824218
Q -272.4494567871094 -209.14765319824218 -256.85120544433596 -207.0678863525391 -241.13741149902341 -205.103662109375 -230.27640686035159 -200.94412841796876 -208.78548278808591 -192.74060363769533 -196.8845947265625 -177.1423522949219 -186.02359008789062 -160.73530273437498 -186.02359008789062 -136.58689880371094 Z
M -132.87399291992188 31.296502685546876
L -132.87399291992188 -209.14765319824218 -88.50563354492186 -209.14765319824218 -88.50563354492186 31.296502685546876 -132.87399291992188 31.296502685546876 Z"/>

<path id="lhletras_0_Layer0_0_MEMBER_1_1_STROKES" stroke="#FFFFFF" stroke-opacity="0.2" stroke-width="4" stroke-linejoin="round" stroke-linecap="round" fill="none" d="
M 751.3735443115233 191.43854980468748
Q 751.3735443115233 188.66552734374997 749.9870330810547 187.04793090820314 748.716064453125 185.3147918701172 746.2896697998046 184.27490844726563 744.2099029541016 183.23502502441406 741.2057952880859 182.5417694091797 738.4327728271485 181.84851379394533 735.4286651611328 181.1552581787109 730.9225036621094 180.5775451660156 727.2251403808593 179.19103393554687 723.5277770996095 177.80452270507814 720.7547546386718 175.724755859375 717.6351043701172 173.41390380859374 716.0175079345704 169.94762573242187 714.2843688964845 166.59689025878905 714.2843688964845 161.39747314453123 714.2843688964845 155.96697082519532 716.3641357421875 151.57635192871092 718.3283599853517 147.53236083984373 721.7946380615235 144.75933837890625 725.1453735351563 141.98631591796874 729.6515350341797 140.71534729003906 734.3887817382813 139.3288360595703 739.8192840576171 139.3288360595703 745.5964141845702 139.3288360595703 751.3735443115233 140.36871948242188 757.1506744384765 141.63968811035156 761.3102081298828 143.3728271484375
L 761.3102081298828 154.58045959472653
Q 755.879705810547 152.26960754394528 750.6802886962892 151.22972412109377 745.5964141845702 150.1898406982422 741.2057952880859 150.1898406982422 734.7354095458984 150.1898406982422 731.2691314697265 152.6162353515625 727.5717681884767 154.92708740234374 727.5717681884767 159.77987670898435 727.5717681884767 162.4373565673828 728.9582794189453 164.17049560546874 729.9981628417968 165.90363464355468 731.9623870849609 167.2901458740234 734.042153930664 168.21448669433593 736.4685485839843 168.9077423095703 739.1260284423829 169.60099792480466 741.8990509033204 170.29425354003908 746.2896697998046 170.98750915527344 750.3336608886718 172.37402038574217 754.8398223876952 173.76053161621095 757.8439300537109 175.724755859375 760.9635803222657 178.1511505126953 763.0433471679687 181.84851379394533 764.6609436035155 185.3147918701172 764.6609436035155 190.74529418945312 764.6609436035155 196.52242431640624 762.6967193603516 200.91304321289064 760.6169525146483 205.07257690429688 756.5729614257812 207.73005676269528 752.7600555419922 210.5030792236328 746.9829254150391 211.88959045410158 741.552423095703 213.2761016845703 734.7354095458984 213.2761016845703 728.9582794189453 213.2761016845703 723.5277770996095 212.23621826171873 717.6351043701172 210.84970703125 713.9377410888671 208.76994018554686
L 713.9377410888671 197.90893554687497
Q 719.3682434082032 199.98870239257812 724.4521179199219 201.2596710205078 729.3049072265626 202.29955444335937 734.7354095458984 202.29955444335937 737.7395172119141 202.29955444335937 740.8591674804688 201.606298828125 743.5166473388672 201.2596710205078 746.2896697998046 199.98870239257812 748.3694366455079 198.6021911621094 749.9870330810547 196.52242431640624 751.3735443115233 194.4426574707031 751.3735443115233 191.43854980468748 Z
M 566.1587524414062 176.0713836669922
Q 566.1587524414062 184.27490844726563 564.0789855957031 191.09192199707033 561.6525909423829 197.90893554687497 557.2619720458985 202.99281005859373 552.8713531494141 207.73005676269528 546.4009674072265 210.5030792236328 539.9305816650391 213.2761016845703 531.7270568847656 213.2761016845703 523.176904296875 213.2761016845703 516.7065185546875 210.5030792236328 510.23613281250005 207.73005676269528 505.84551391601565 202.99281005859373 501.33935241699214 197.90893554687497 499.3751281738281 191.09192199707033 496.94873352050786 184.27490844726563 496.94873352050786 176.0713836669922 496.94873352050786 168.21448669433593 499.3751281738281 161.39747314453123 501.33935241699214 154.58045959472653 505.84551391601565 149.49658508300783 510.23613281250005 144.75933837890625 516.7065185546875 141.98631591796874 523.176904296875 139.3288360595703 531.7270568847656 139.3288360595703 539.9305816650391 139.3288360595703 546.4009674072265 141.98631591796874 552.8713531494141 144.75933837890625 557.2619720458985 149.49658508300783 561.6525909423829 154.58045959472653 564.0789855957031 161.39747314453123 566.1587524414062 168.21448669433593 566.1587524414062 176.0713836669922 Z
M 552.8713531494141 176.0713836669922
Q 552.8713531494141 169.60099792480466 551.1382141113281 164.8637512207031 549.4050750732422 160.12650451660156 546.7475952148437 156.66022644042968 543.9745727539063 153.65611877441407 540.2772094726563 151.92297973632813 536.11767578125 150.1898406982422 531.7270568847656 150.1898406982422 526.9898101806641 150.1898406982422 523.176904296875 151.92297973632813 519.1329132080078 153.65611877441407 516.3598907470703 156.66022644042968 513.7024108886719 160.12650451660156 511.969271850586 164.8637512207031 510.23613281250005 169.60099792480466 510.23613281250005 176.0713836669922 510.23613281250005 182.88839721679685 511.969271850586 187.62564392089845 513.7024108886719 192.47843322753906 516.3598907470703 195.82916870117188 519.1329132080078 198.94881896972655 523.176904296875 200.56641540527343 526.9898101806641 202.29955444335937 531.7270568847656 202.29955444335937 536.11767578125 202.29955444335937 540.2772094726563 200.56641540527343 543.9745727539063 198.94881896972655 546.7475952148437 195.82916870117188 549.4050750732422 192.47843322753906 551.1382141113281 187.62564392089845 552.8713531494141 182.88839721679685 552.8713531494141 176.0713836669922 Z
M 321.55506286621096 173.76053161621095
Q 329.06533203125 184.62153625488278 333.8025787353515 193.17168884277342
L 334.1492065429687 193.17168884277342
Q 333.8025787353515 179.19103393554687 333.8025787353515 173.06727600097653
L 333.8025787353515 140.71534729003906 346.7433502197266 140.71534729003906 346.7433502197266 211.88959045410158 333.1093231201172 211.88959045410158 310.0008026123047 179.19103393554687
Q 303.8770446777344 170.64088134765623 297.06003112792973 159.4332489013672
L 296.7134033203125 159.4332489013672
Q 297.40665893554683 172.37402038574217 297.40665893554683 179.53766174316408
L 297.40665893554683 211.88959045410158 284.46588745117185 211.88959045410158 284.46588745117185 140.71534729003906 297.98437194824214 140.71534729003906 321.55506286621096 173.76053161621095 Z
M 117.50682678222657 193.86494445800778
L 90.58540039062501 193.86494445800778 83.42175903320313 211.88959045410158 69.78773193359375 211.88959045410158 98.09566955566407 140.71534729003906 109.9965576171875 140.71534729003906 138.30449523925782 211.88959045410158 124.32384033203124 211.88959045410158 117.50682678222657 193.86494445800778 Z
M 103.8727996826172 157.70010986328126
Q 100.1754364013672 168.9077423095703 97.0557861328125 176.41801147460936
L 94.74493408203125 182.88839721679685 113.1162078857422 182.88839721679685 110.68981323242187 176.41801147460936
Q 108.03233337402344 168.9077423095703 104.21942749023438 157.70010986328126
L 103.8727996826172 157.70010986328126 Z
M -112.76958007812499 192.82506103515627
Q -110.68981323242187 184.27490844726563 -106.99244995117186 174.68487243652342
L -94.74493408203125 140.71534729003906 -76.60474548339843 140.71534729003906 -76.60474548339843 211.88959045410158 -89.54551696777344 211.88959045410158 -89.54551696777344 175.724755859375
Q -89.54551696777344 167.86785888671872 -88.85226135253907 157.35348205566405
L -89.19888916015626 157.35348205566405
Q -90.2387725830078 160.47313232421877 -91.62528381347656 164.17049560546874 -92.66516723632813 167.86785888671872 -94.05167846679689 171.6807647705078
L -108.61004638671875 211.88959045410158 -117.16019897460939 211.88959045410158 -131.8341094970703 171.6807647705078
Q -133.22062072753906 167.86785888671872 -134.49158935546876 164.17049560546874 -135.8781005859375 160.47313232421877 -136.57135620117188 157.35348205566405
L -137.26461181640624 157.35348205566405
Q -136.57135620117188 167.2901458740234 -136.57135620117188 175.724755859375
L -136.57135620117188 211.88959045410158 -149.5121276855469 211.88959045410158 -149.5121276855469 140.71534729003906 -131.48748168945312 140.71534729003906 -118.89333801269532 174.33824462890627
Q -115.77368774414063 182.88839721679685 -113.1162078857422 192.82506103515627
L -112.76958007812499 192.82506103515627 Z
M -334.84246215820315 173.41390380859374
Q -330.45184326171875 173.41390380859374 -326.9855651855469 173.06727600097653 -323.9814575195312 172.72064819335938 -321.90169067382817 171.6807647705078 -318.0887847900391 170.29425354003908 -316.47118835449214 167.63677368164062 -315.0846771240234 165.21037902832032 -315.0846771240234 161.74410095214844 -315.0846771240234 159.08662109374998 -316.12456054687505 156.66022644042968 -317.5110717773438 154.58045959472653 -320.16855163574223 153.30949096679686 -322.24831848144527 152.26960754394528 -324.9057983398437 151.92297973632813 -327.6788208007813 151.57635192871092 -331.7228118896485 151.57635192871092
L -341.3128479003906 151.57635192871092 -341.3128479003906 173.41390380859374 -334.84246215820315 173.41390380859374 Z
M -301.450650024414 162.0907287597656
Q -301.450650024414 169.60099792480466 -305.4946411132812 174.68487243652342 -310.0008026123047 179.88428955078123 -318.4354125976563 182.19514160156248
L -318.4354125976563 182.5417694091797 -297.40665893554683 211.88959045410158 -313.00491027832027 211.88959045410158 -332.0694396972656 184.27490844726563 -341.3128479003906 184.27490844726563 -341.3128479003906 211.88959045410158 -354.25361938476567 211.88959045410158 -354.25361938476567 140.71534729003906 -332.4160675048828 140.71534729003906
Q -327.3321929931641 140.71534729003906 -322.5949462890625 141.40860290527343 -317.7421569824219 141.98631591796874 -314.7380493164062 143.0261993408203 -308.2676635742188 145.4525939941406 -304.8013854980469 150.1898406982422 -301.450650024414 154.92708740234374 -301.450650024414 162.0907287597656 Z
M -539.5839538574219 200.91304321289064
L -504.4590026855469 200.91304321289064 -504.4590026855469 211.88959045410158 -552.5247253417969 211.88959045410158 -552.5247253417969 140.71534729003906 -506.53876953124995 140.71534729003906 -506.53876953124995 151.57635192871092 -539.5839538574219 151.57635192871092 -539.5839538574219 169.94762573242187 -510.92938842773435 169.94762573242187 -510.92938842773435 180.80863037109376 -539.5839538574219 180.80863037109376 -539.5839538574219 200.91304321289064 Z
M -751.7201721191407 169.94762573242187
L -718.6749877929688 169.94762573242187 -718.6749877929688 140.71534729003906 -705.7342163085937 140.71534729003906 -705.7342163085937 211.88959045410158 -718.6749877929688 211.88959045410158 -718.6749877929688 180.80863037109376 -751.7201721191407 180.80863037109376 -751.7201721191407 211.88959045410158 -764.6609436035155 211.88959045410158 -764.6609436035155 140.71534729003906 -751.7201721191407 140.71534729003906 -751.7201721191407 169.94762573242187 Z"/>
</defs>

<g transform="matrix( 0.089111328125, 0, 0, 0.089111328125, 75,21.55) ">
<g transform="matrix( 2.31085205078125, 0, 0, 2.31085205078125, 0,0.1) ">
<use xlink:href="#lhletras_0_Layer0_0_MEMBER_0_FILL"/>

<use xlink:href="#lhletras_0_Layer0_0_MEMBER_0_1_STROKES" transform="matrix( 0.4327392578125, 0, 0, 0.4327392578125, 0,0) "/>
</g>

<g transform="matrix( 2.31085205078125, 0, 0, 2.31085205078125, 0,0.1) ">
<use xlink:href="#lhletras_0_Layer0_0_MEMBER_1_FILL"/>

<use xlink:href="#lhletras_0_Layer0_0_MEMBER_1_1_STROKES" transform="matrix( 0.4327392578125, 0, 0, 0.4327392578125, 0,0) "/>
</g>
</g>
</svg>
