
<svg xmlns="http://www.w3.org/2000/svg" version="1.1" xmlns:xlink="http://www.w3.org/1999/xlink" preserveAspectRatio="none" x="0px" y="0px" width="42px" height="40px" viewBox="0 0 42 40">
<defs>
<g id="Menu_btn_0_Layer0_0_MEMBER_0_FILL">
<path fill="#C4DDE6" stroke="none" d="
M 503.5 8.4
Q 502.6 7.5 501.3 7.5
L 435.45 7.5
Q 434.15 7.5 433.25 8.4 432.35 9.3 432.35 10.6
L 432.35 10.65
Q 432.35 11.95 433.25 12.85 434.15 13.75 435.45 13.75
L 501.3 13.75
Q 502.6 13.75 503.5 12.85 504.4 11.95 504.4 10.65
L 504.4 10.6
Q 504.4 9.3 503.5 8.4 Z"/>
</g>

<g id="Menu_btn_0_Layer0_0_MEMBER_1_FILL">
<path fill="#C4DDE6" stroke="none" d="
M 503.5 8.4
Q 502.6 7.5 501.3 7.5
L 435.45 7.5
Q 434.15 7.5 433.25 8.4 432.35 9.3 432.35 10.6
L 432.35 10.65
Q 432.35 11.95 433.25 12.85 434.15 13.75 435.45 13.75
L 501.3 13.75
Q 502.6 13.75 503.5 12.85 504.4 11.95 504.4 10.65
L 504.4 10.6
Q 504.4 9.3 503.5 8.4 Z"/>
</g>

<g id="Menu_btn_0_Layer0_0_MEMBER_2_FILL">
<path fill="#C4DDE6" stroke="none" d="
M 503.5 8.4
Q 502.6 7.5 501.3 7.5
L 435.45 7.5
Q 434.15 7.5 433.25 8.4 432.35 9.3 432.35 10.6
L 432.35 10.65
Q 432.35 11.95 433.25 12.85 434.15 13.75 435.45 13.75
L 501.3 13.75
Q 502.6 13.75 503.5 12.85 504.4 11.95 504.4 10.65
L 504.4 10.6
Q 504.4 9.3 503.5 8.4 Z"/>
</g>

<g id="Menu_btn_0_Layer0_0_MEMBER_3_FILL">
<path fill="#C4DDE6" stroke="none" d="
M 503.5 8.4
Q 502.6 7.5 501.3 7.5
L 435.45 7.5
Q 434.15 7.5 433.25 8.4 432.35 9.3 432.35 10.6
L 432.35 10.65
Q 432.35 11.95 433.25 12.85 434.15 13.75 435.45 13.75
L 501.3 13.75
Q 502.6 13.75 503.5 12.85 504.4 11.95 504.4 10.65
L 504.4 10.6
Q 504.4 9.3 503.5 8.4 Z"/>
</g>

<path id="Menu_btn_0_Layer0_0_MEMBER_0_1_STROKES" stroke="#FFFFFF" stroke-opacity="0.13725490196078433" stroke-width="2" stroke-linejoin="round" stroke-linecap="round" fill="none" d="
M -17.83516769409181 -7.183433532714844
L 17.659083557128895 -7.183433532714844
Q 18.35980529785155 -7.183433532714844 18.844920349121082 -6.425445556640625 19.330035400390614 -5.667457580566405 19.330035400390614 -4.5725860595703125
L 19.330035400390614 -4.530475616455078
Q 19.330035400390614 -3.4356040954589844 18.844920349121082 -2.6776161193847656 18.35980529785155 -1.9196281433105469 17.659083557128895 -1.9196281433105469
L -17.83516769409181 -1.9196281433105469
Q -18.535889434814464 -1.9196281433105469 -19.021004486083996 -2.6776161193847656 -19.506119537353527 -3.4356040954589844 -19.506119537353527 -4.530475616455078
L -19.506119537353527 -4.5725860595703125
Q -19.506119537353527 -5.667457580566405 -19.021004486083996 -6.425445556640625 -18.535889434814464 -7.183433532714844 -17.83516769409181 -7.183433532714844 Z"/>

<path id="Menu_btn_0_Layer0_0_MEMBER_1_1_STROKES" stroke="#FFFFFF" stroke-opacity="0.13725490196078433" stroke-width="2" stroke-linejoin="round" stroke-linecap="round" fill="none" d="
M -9.149973297119146 1.9665664672851566
L 18.123075866699224 1.9665664672851566
Q 18.6614959716797 1.9665664672851566 19.03424835205078 2.7245544433593754 19.407000732421864 3.482542419433595 19.407000732421864 4.577413940429688
L 19.407000732421864 4.619524383544922
Q 19.407000732421864 5.714395904541016 19.03424835205078 6.472383880615235 18.6614959716797 7.2303718566894535 18.123075866699224 7.2303718566894535
L -9.149973297119146 7.2303718566894535
Q -9.68839340209962 7.2303718566894535 -10.061145782470703 6.472383880615235 -10.433898162841786 5.714395904541016 -10.433898162841786 4.619524383544922
L -10.433898162841786 4.577413940429688
Q -10.433898162841786 3.482542419433595 -10.061145782470703 2.7245544433593754 -9.68839340209962 1.9665664672851566 -9.149973297119146 1.9665664672851566 Z"/>

<path id="Menu_btn_0_Layer0_0_MEMBER_2_1_STROKES" stroke="#FFFFFF" stroke-opacity="0.13725490196078433" stroke-width="2" stroke-linejoin="round" stroke-linecap="round" fill="none" d="
M -17.83516769409181 11.116566467285157
L 17.659083557128895 11.116566467285157
Q 18.35980529785155 11.116566467285157 18.844920349121082 11.874554443359376 19.330035400390614 12.632542419433594 19.330035400390614 13.727413940429688
L 19.330035400390614 13.769524383544923
Q 19.330035400390614 14.864395904541016 18.844920349121082 15.622383880615235 18.35980529785155 16.380371856689454 17.659083557128895 16.380371856689454
L -17.83516769409181 16.380371856689454
Q -18.535889434814464 16.380371856689454 -19.021004486083996 15.622383880615235 -19.506119537353527 14.864395904541016 -19.506119537353527 13.769524383544923
L -19.506119537353527 13.727413940429688
Q -19.506119537353527 12.632542419433594 -19.021004486083996 11.874554443359376 -18.535889434814464 11.116566467285157 -17.83516769409181 11.116566467285157 Z"/>

<path id="Menu_btn_0_Layer0_0_MEMBER_3_1_STROKES" stroke="#FFFFFF" stroke-opacity="0.13725490196078433" stroke-width="2" stroke-linejoin="round" stroke-linecap="round" fill="none" d="
M -5.709024810791021 -16.333433532714842
L 18.356730651855486 -16.333433532714842
Q 18.831832885742188 -16.333433532714842 19.160749816894537 -15.575445556640624 19.489666748046886 -14.817457580566405 19.489666748046886 -13.722586059570311
L 19.489666748046886 -13.680475616455077
Q 19.489666748046886 -12.585604095458983 19.160749816894537 -11.827616119384764 18.831832885742188 -11.069628143310545 18.356730651855486 -11.069628143310545
L -5.709024810791021 -11.069628143310545
Q -6.184127044677723 -11.069628143310545 -6.513043975830072 -11.827616119384764 -6.841960906982422 -12.585604095458983 -6.841960906982422 -13.680475616455077
L -6.841960906982422 -13.722586059570311
Q -6.841960906982422 -14.817457580566405 -6.513043975830072 -15.575445556640624 -6.184127044677723 -16.333433532714842 -5.709024810791021 -16.333433532714842 Z"/>
</defs>

<g transform="matrix( 0.6871795654296875, 0, 0, 0.6871795654296875, 21,20) ">
<g transform="matrix( 0.5390167236328125, 0, 0, 0.8422088623046875, -252.55,-13.5) ">
<use xlink:href="#Menu_btn_0_Layer0_0_MEMBER_0_FILL"/>

<use xlink:href="#Menu_btn_0_Layer0_0_MEMBER_0_1_STROKES" transform="matrix( 1.855224609375, 0, 0, 1.187347412109375, 468.5,16) "/>
</g>

<g transform="matrix( 0.4141693115234375, 0, 0, 0.8422088623046875, -189.5,-4.35) ">
<use xlink:href="#Menu_btn_0_Layer0_0_MEMBER_1_FILL"/>

<use xlink:href="#Menu_btn_0_Layer0_0_MEMBER_1_1_STROKES" transform="matrix( 2.414459228515625, 0, 0, 1.187347412109375, 457.5,5.15) "/>
</g>

<g transform="matrix( 0.5390167236328125, 0, 0, 0.8422088623046875, -252.55,4.8) ">
<use xlink:href="#Menu_btn_0_Layer0_0_MEMBER_2_FILL"/>

<use xlink:href="#Menu_btn_0_Layer0_0_MEMBER_2_1_STROKES" transform="matrix( 1.855224609375, 0, 0, 1.187347412109375, 468.5,-5.65) "/>
</g>

<g transform="matrix( 0.3654632568359375, 0, 0, 0.8422088623046875, -164.85,-22.65) ">
<use xlink:href="#Menu_btn_0_Layer0_0_MEMBER_3_FILL"/>

<use xlink:href="#Menu_btn_0_Layer0_0_MEMBER_3_1_STROKES" transform="matrix( 2.7362518310546875, 0, 0, 1.187347412109375, 451.05,26.85) "/>
</g>
</g>
</svg>
