
<svg xmlns="http://www.w3.org/2000/svg" version="1.1" xmlns:xlink="http://www.w3.org/1999/xlink" preserveAspectRatio="none" x="0px" y="0px" width="30px" height="30px" viewBox="0 0 30 30">
<defs>
<g id="Layer0_0_FILL">
<path fill="#FFFFFF" stroke="none" d="
M 27.65 -18.55
Q 25.7 -21.4 23.15 -23.95 12.95 -34.15 -1.5 -34.15 -15.95 -34.15 -26.2 -23.95 -36.4 -13.75 -36.4 0.75 -36.4 12.3 -29.9 21.15
L -33.5 32.85 -20.6 30.05
Q -12.2 35.65 -1.5 35.65 12.95 35.65 23.15 25.4 25.7 22.85 27.65 20 33.4 11.55 33.4 0.75 33.4 -10.1 27.65 -18.55
M 21.9 -22.65
Q 25.4 -19.15 27.65 -15.1 31.6 -8 31.6 0.75 31.6 9.5 27.65 16.6 25.4 20.6 21.9 24.1 12.25 33.8 -1.45 33.8 -11.6 33.8 -19.55 28.5
L -31.75 31.15 -28.35 20.05
Q -34.5 11.7 -34.5 0.75 -34.5 -12.95 -24.85 -22.65 -15.15 -32.3 -1.45 -32.3 12.25 -32.3 21.9 -22.65
M 8.15 20.2
Q 18.85 20.3 19.9 10.2
L 8.95 5.25 4.55 10.5
Q -4.55 9.7 -11.15 -2.1
L -7.75 -7.4
Q -9 -12.4 -12.15 -17.45
L -17.45 -17.45
Q -24.05 -11.75 -21.5 -4.65 -15.15 14.85 8.15 20.2 Z"/>

<path fill="#00CC00" stroke="none" d="
M 27.65 -15.1
Q 25.4 -19.15 21.9 -22.65 12.25 -32.3 -1.45 -32.3 -15.15 -32.3 -24.85 -22.65 -34.5 -12.95 -34.5 0.75 -34.5 11.7 -28.35 20.05
L -31.75 31.15 -19.55 28.5
Q -11.6 33.8 -1.45 33.8 12.25 33.8 21.9 24.1 25.4 20.6 27.65 16.6 31.6 9.5 31.6 0.75 31.6 -8 27.65 -15.1
M 19.9 10.2
Q 18.85 20.3 8.15 20.2 -15.15 14.85 -21.5 -4.65 -24.05 -11.75 -17.45 -17.45
L -12.15 -17.45
Q -9 -12.4 -7.75 -7.4
L -11.15 -2.1
Q -4.55 9.7 4.55 10.5
L 8.95 5.25 19.9 10.2 Z"/>
</g>

<path id="Layer0_1_1_STROKES" stroke="#000000" stroke-opacity="0.12941176470588237" stroke-width="6" stroke-linejoin="round" stroke-linecap="round" fill="none" d="
M 27.65 -18.55
Q 33.4 -10.1 33.4 0.75 33.4 11.55 27.65 20 25.7 22.85 23.15 25.4 12.95 35.65 -1.5 35.65 -12.2 35.65 -20.6 30.05
L -33.5 32.85 -29.9 21.15
Q -36.4 12.3 -36.4 0.75 -36.4 -13.75 -26.2 -23.95 -15.95 -34.15 -1.5 -34.15 12.95 -34.15 23.15 -23.95 25.7 -21.4 27.65 -18.55 Z"/>

<path id="Layer0_2_1_STROKES" stroke="#FFFFFF" stroke-width="5" stroke-linejoin="round" stroke-linecap="round" fill="none" d="
M 27.65 -18.55
Q 33.4 -10.1 33.4 0.75 33.4 11.55 27.65 20 25.7 22.85 23.15 25.4 12.95 35.65 -1.5 35.65 -12.2 35.65 -20.6 30.05
L -33.5 32.85 -29.9 21.15
Q -36.4 12.3 -36.4 0.75 -36.4 -13.75 -26.2 -23.95 -15.95 -34.15 -1.5 -34.15 12.95 -34.15 23.15 -23.95 25.7 -21.4 27.65 -18.55 Z"/>
</defs>

<g transform="matrix( 0.293701171875, 0, 0, 0.293701171875, 15.45,14.8) ">
<g transform="matrix( 1, 0, 0, 1, 0,0) ">
<use xlink:href="#Layer0_0_FILL"/>
</g>

<g transform="matrix( 1, 0, 0, 1, 0,0) ">
<use xlink:href="#Layer0_1_1_STROKES"/>
</g>

<g transform="matrix( 1, 0, 0, 1, 0,0) ">
<use xlink:href="#Layer0_2_1_STROKES"/>
</g>
</g>
</svg>
