
<svg xmlns="http://www.w3.org/2000/svg" version="1.1" xmlns:xlink="http://www.w3.org/1999/xlink" preserveAspectRatio="none" x="0px" y="0px" width="480px" height="120px" viewBox="0 0 480 120">
<defs>
<g id="iconos_0_Layer1_0_FILL">
<path fill="#0099CC" stroke="none" d="
M -23.2 39.85
Q -23.140234375 39.8873046875 -23.1 39.9 -23.0404296875 39.9 -23 39.9
L -23.2 39.85
M -23 -8.6
Q -23.0431640625 -8.6 -23.1 -8.6 -23.1427734375 -8.5873046875 -23.2 -8.6
L -23 -8.6
M 22.95 39.9
Q 23.009765625 39.9 23.05 39.9 23.121875 39.887109375 23.15 39.85
L 22.95 39.9
M 26.9 -3.65
Q 26.9 -7.6 22.95 -7.6 0 -12.55 -23 -7.6 -26.95 -7.6 -26.95 -3.65
L -26.95 34.95
Q -26.95 38.9 -23 38.9 1.15 43.9 22.95 38.9 26.9 38.9 26.9 34.95
L 26.9 -3.65
M 23.15 -8.6
Q 23.0927734375 -8.5873046875 23 -8.6 22.99296875 -8.6 22.95 -8.6
L 23.15 -8.6 Z"/>

<path fill="#80CCE6" stroke="none" d="
M 9.2 -30.15
L 9.2 -30.2
Q 12.80390625 -26.35703125 12.8 -21.05
L 12.8 -14.25
Q 12.7951171875 -14.19921875 12.8 -14.15 12.803125 -13.792578125 13 -13.55 13.0615234375 -13.4875 13.1 -13.45 13.3212890625 -13.2232421875 13.6 -13.2 13.65625 -13.155078125 13.7 -13.15 15.191796875 -13.0130859375 16.6 -12.8
L 16.65 -12.8 16.7 -12.75
Q 18.333203125 -12.517578125 19.95 -12.2 20.0115234375 -12.1857421875 20.05 -12.2 20.1439453125 -12.1509765625 20.25 -12.15 20.560546875 -12.152734375 20.8 -12.35 20.8794921875 -12.377734375 20.95 -12.45 21.17109375 -12.665625 21.2 -12.95 21.2490234375 -13.0455078125 21.25 -13.15
L 21.25 -21.1
Q 21.2466796875 -29.908203125 15.3 -36.15 9.3248046875 -42.4076171875 0.85 -42.4
L -0.85 -42.4
Q -9.2740234375 -42.40859375 -15.3 -36.15 -21.248828125 -29.90859375 -21.25 -21.1
L -21.25 -13.15
Q -21.2490234375 -13.0455078125 -21.25 -12.95 -21.2076171875 -12.858203125 -21.2 -12.8 -21.099609375 -12.5958984375 -20.95 -12.45 -20.879296875 -12.3775390625 -20.8 -12.35 -20.5603515625 -12.152734375 -20.25 -12.15 -20.147265625 -12.15078125 -20.05 -12.2
L -20.05 -12.2
Q -18.3662109375 -12.512890625 -16.7 -12.75 -16.6033203125 -12.7681640625 -16.55 -12.8 -15.0853515625 -13.019921875 -13.7 -13.15
L -13.65 -13.15
Q -13.337109375 -13.20703125 -13.1 -13.45 -13.061328125 -13.4876953125 -13.05 -13.55
L -13 -13.55
Q -12.8029296875 -13.8154296875 -12.8 -14.15 -12.7951171875 -14.19921875 -12.8 -14.25
L -12.8 -21.05
Q -12.80390625 -26.35703125 -9.25 -30.2
L -9.25 -30.15
Q -5.6275390625 -33.8453125 -0.6 -33.85
L 0.6 -33.85
Q 5.6275390625 -33.8453125 9.2 -30.15 Z"/>
</g>

<g id="iconos_0_Layer1_0_MEMBER_0_MEMBER_0_FILL">
<path fill="#80CCE6" stroke="none" d="
M -414.75 -308.5
Q -423.8 -317.55 -436.65 -317.55 -449.5 -317.55 -458.6 -308.5 -467.65 -299.4 -467.65 -286.55 -467.65 -273.7 -458.6 -264.65 -449.5 -255.55 -436.65 -255.55 -423.8 -255.55 -414.75 -264.65 -405.65 -273.7 -405.65 -286.55 -405.65 -299.4 -414.75 -308.5 Z"/>
</g>

<g id="iconos_0_Layer1_0_MEMBER_0_MEMBER_1_FILL">
<path fill="#004966" stroke="none" d="
M 4.3 10.1
Q 3.45 8.35 1.6 7.65 -0.25 7 -2.05 7.85 -3.9 8.65 -4.55 10.55 -5.25 12.4 -4.45 14.2 -3.9 15.3 -3.05 15.95
L -4.3 23.8 4.15 23.8 2.95 15.95
Q 4 15.15 4.45 13.8 5.15 11.9 4.3 10.1 Z"/>
</g>

<g id="iconos_0_Layer0_0_FILL">
<path fill="#004966" fill-opacity="0" stroke="none" d="
M 63.15 -60
L -56.85 -60 -56.85 60 63.15 60 63.15 -60 Z"/>
</g>

<g id="iconos_1_Layer1_0_MEMBER_0_FILL">
<path fill="#0099CC" stroke="none" d="
M 118.4 -14.85
Q 117.85 -14.3 117.85 -13.6 117.85 -12.8 118.4 -12.3 118.95 -11.75 119.65 -11.75 120.45 -11.75 120.95 -12.3 121.45 -12.8 121.45 -13.6 121.45 -14.3 120.95 -14.85 120.45 -15.35 119.65 -15.35 118.95 -15.35 118.4 -14.85
M 119.65 -12.9
Q 119.35 -12.9 119.15 -13.05 118.95 -13.25 118.95 -13.6 118.95 -13.85 119.15 -14.05 119.35 -14.25 119.65 -14.25 119.95 -14.25 120.15 -14.05 120.35 -13.85 120.35 -13.6 120.35 -13.25 120.15 -13.05 119.95 -12.9 119.65 -12.9
M 114.8 -16.3
Q 114.65 -16.2 114.65 -16.1 114.7 -15.95 114.85 -15.9
L 115.55 -15.25
Q 115.65 -15.2 115.75 -15.2 115.9 -15.2 115.95 -15.25 116.9 -16.35 118.25 -16.8 119.65 -17.2 121 -16.8
L 120.95 -16.8
Q 122.4 -16.35 123.3 -15.25 123.4 -15.2 123.5 -15.2 123.65 -15.2 123.75 -15.25
L 124.45 -15.9
Q 124.55 -15.95 124.6 -16.1 124.6 -16.2 124.55 -16.3 123.3 -17.75 121.45 -18.3 119.65 -18.85 117.8 -18.3 115.95 -17.75 114.8 -16.3
M 111.6 -19
Q 111.55 -18.85 111.55 -18.75 111.6 -18.6 111.65 -18.55
L 112.9 -17.5
Q 113 -17.4 113.15 -17.4 113.25 -17.4 113.35 -17.5 114.95 -19.35 117.25 -20.1 119.65 -20.8 122 -20.1 124.35 -19.35 125.95 -17.5 126 -17.4 126.15 -17.4 126.25 -17.4 126.4 -17.5
L 127.65 -18.5
Q 127.7 -18.6 127.7 -18.75 127.75 -18.85 127.65 -19 125.65 -21.35 122.65 -22.25 119.65 -23.15 116.65 -22.25 113.6 -21.35 111.6 -19
M 115.3 -26.7
L 115.25 -26.7
Q 110.95 -25.4 108.05 -21.95 107.95 -21.9 108 -21.7 108 -21.6 108.1 -21.55
L 109.85 -19.95
Q 110 -19.9 110.15 -19.9 110.2 -19.9 110.35 -20 112.7 -22.8 116.15 -23.85 119.6 -24.9 123.1 -23.85
L 123.05 -23.85
Q 126.55 -22.8 128.9 -20 129 -19.9 129.15 -19.9 129.25 -19.9 129.35 -19.95
L 131.2 -21.55
Q 131.25 -21.6 131.25 -21.7 131.3 -21.9 131.25 -21.95 130.7 -22.55 130.2 -23 127.55 -25.6 124 -26.7 119.65 -28 115.3 -26.7 Z"/>
</g>

<g id="iconos_1_Layer1_0_MEMBER_1_MEMBER_0_FILL">
<path fill="#004966" stroke="none" d="
M 186.4 -47.2
L 164.6 -47.2
Q 159.6 -47.2 159.6 -42.2
L 159.6 37.7 191.4 37.7 191.4 -42.2
Q 191.4 -47.2 186.4 -47.2 Z"/>
</g>

<g id="iconos_1_Layer1_0_MEMBER_1_MEMBER_1_FILL">
<path fill="#80CCE6" stroke="none" d="
M -87.75 -49.25
L -100.75 -49.25 -100.75 -36.25 -87.75 -36.25 -87.75 -49.25 Z"/>
</g>

<g id="iconos_1_Layer1_0_MEMBER_1_MEMBER_2_FILL">
<path fill="#80CCE6" stroke="none" d="
M -87.75 -49.25
L -100.75 -49.25 -100.75 -36.25 -87.75 -36.25 -87.75 -49.25 Z"/>
</g>

<g id="iconos_1_Layer1_0_MEMBER_1_MEMBER_3_FILL">
<path fill="#80CCE6" stroke="none" d="
M -87.75 -49.25
L -100.75 -49.25 -100.75 -36.25 -87.75 -36.25 -87.75 -49.25 Z"/>
</g>

<g id="iconos_1_Layer1_0_MEMBER_1_MEMBER_4_FILL">
<path fill="#80CCE6" stroke="none" d="
M -87.75 -49.25
L -100.75 -49.25 -100.75 -36.25 -87.75 -36.25 -87.75 -49.25 Z"/>
</g>

<g id="iconos_1_Layer1_0_MEMBER_1_MEMBER_5_FILL">
<path fill="#80CCE6" stroke="none" d="
M -87.75 -49.25
L -100.75 -49.25 -100.75 -36.25 -87.75 -36.25 -87.75 -49.25 Z"/>
</g>

<g id="iconos_1_Layer1_0_MEMBER_1_MEMBER_6_FILL">
<path fill="#80CCE6" stroke="none" d="
M -87.75 -49.25
L -100.75 -49.25 -100.75 -36.25 -87.75 -36.25 -87.75 -49.25 Z"/>
</g>

<g id="iconos_1_Layer1_0_MEMBER_1_MEMBER_7_FILL">
<path fill="#80CCE6" stroke="none" d="
M -87.75 -49.25
L -100.75 -49.25 -100.75 -36.25 -87.75 -36.25 -87.75 -49.25 Z"/>
</g>

<g id="iconos_1_Layer1_0_MEMBER_1_MEMBER_10_FILL">
<path fill="#80CCE6" stroke="none" d="
M 158 28.95
L 154.2 28.95 154.2 35.35 158 35.35 158 28.95 Z"/>
</g>

<g id="iconos_1_Layer1_0_MEMBER_2_MEMBER_0_FILL">
<path fill="#004966" stroke="none" d="
M 226.75 -73.05
L 202.9 -73.05
Q 197.9 -73.05 197.9 -68.05
L 197.9 37.7 231.75 37.7 231.75 -68.05
Q 231.75 -73.05 226.75 -73.05 Z"/>
</g>

<g id="iconos_1_Layer1_0_MEMBER_2_MEMBER_1_FILL">
<path fill="#80CCE6" stroke="none" d="
M -87.75 -49.25
L -100.75 -49.25 -100.75 -36.25 -87.75 -36.25 -87.75 -49.25 Z"/>
</g>

<g id="iconos_1_Layer1_0_MEMBER_2_MEMBER_2_FILL">
<path fill="#80CCE6" stroke="none" d="
M -87.75 -49.25
L -100.75 -49.25 -100.75 -36.25 -87.75 -36.25 -87.75 -49.25 Z"/>
</g>

<g id="iconos_1_Layer1_0_MEMBER_2_MEMBER_3_FILL">
<path fill="#80CCE6" stroke="none" d="
M -87.75 -49.25
L -100.75 -49.25 -100.75 -36.25 -87.75 -36.25 -87.75 -49.25 Z"/>
</g>

<g id="iconos_1_Layer1_0_MEMBER_2_MEMBER_4_FILL">
<path fill="#80CCE6" stroke="none" d="
M -87.75 -49.25
L -100.75 -49.25 -100.75 -36.25 -87.75 -36.25 -87.75 -49.25 Z"/>
</g>

<g id="iconos_1_Layer1_0_MEMBER_2_MEMBER_5_FILL">
<path fill="#80CCE6" stroke="none" d="
M -87.75 -49.25
L -100.75 -49.25 -100.75 -36.25 -87.75 -36.25 -87.75 -49.25 Z"/>
</g>

<g id="iconos_1_Layer1_0_MEMBER_2_MEMBER_6_FILL">
<path fill="#80CCE6" stroke="none" d="
M -87.75 -49.25
L -100.75 -49.25 -100.75 -36.25 -87.75 -36.25 -87.75 -49.25 Z"/>
</g>

<g id="iconos_1_Layer1_0_MEMBER_2_MEMBER_7_FILL">
<path fill="#80CCE6" stroke="none" d="
M -87.75 -49.25
L -100.75 -49.25 -100.75 -36.25 -87.75 -36.25 -87.75 -49.25 Z"/>
</g>

<g id="iconos_1_Layer1_0_MEMBER_2_MEMBER_8_FILL">
<path fill="#80CCE6" stroke="none" d="
M -87.75 -49.25
L -100.75 -49.25 -100.75 -36.25 -87.75 -36.25 -87.75 -49.25 Z"/>
</g>

<g id="iconos_1_Layer1_0_MEMBER_2_MEMBER_9_FILL">
<path fill="#80CCE6" stroke="none" d="
M -87.75 -49.25
L -100.75 -49.25 -100.75 -36.25 -87.75 -36.25 -87.75 -49.25 Z"/>
</g>

<g id="iconos_1_Layer1_0_MEMBER_2_MEMBER_10_FILL">
<path fill="#80CCE6" stroke="none" d="
M -87.75 -49.25
L -100.75 -49.25 -100.75 -36.25 -87.75 -36.25 -87.75 -49.25 Z"/>
</g>

<g id="iconos_1_Layer1_0_MEMBER_2_MEMBER_12_FILL">
<path fill="#80CCE6" stroke="none" d="
M 185.35 28.65
L 181.7 28.65 181.7 35.35 185.35 35.35 185.35 28.65 Z"/>
</g>

<g id="iconos_1_Layer1_0_MEMBER_3_MEMBER_0_FILL">
<path fill="#004966" stroke="none" d="
M 186.4 -47.2
L 164.6 -47.2
Q 159.6 -47.2 159.6 -42.2
L 159.6 37.7 191.4 37.7 191.4 -42.2
Q 191.4 -47.2 186.4 -47.2 Z"/>
</g>

<g id="iconos_1_Layer1_0_MEMBER_3_MEMBER_1_FILL">
<path fill="#80CCE6" stroke="none" d="
M -87.75 -49.25
L -100.75 -49.25 -100.75 -36.25 -87.75 -36.25 -87.75 -49.25 Z"/>
</g>

<g id="iconos_1_Layer1_0_MEMBER_3_MEMBER_2_FILL">
<path fill="#80CCE6" stroke="none" d="
M -87.75 -49.25
L -100.75 -49.25 -100.75 -36.25 -87.75 -36.25 -87.75 -49.25 Z"/>
</g>

<g id="iconos_1_Layer1_0_MEMBER_3_MEMBER_3_FILL">
<path fill="#80CCE6" stroke="none" d="
M -87.75 -49.25
L -100.75 -49.25 -100.75 -36.25 -87.75 -36.25 -87.75 -49.25 Z"/>
</g>

<g id="iconos_1_Layer1_0_MEMBER_3_MEMBER_4_FILL">
<path fill="#80CCE6" stroke="none" d="
M -87.75 -49.25
L -100.75 -49.25 -100.75 -36.25 -87.75 -36.25 -87.75 -49.25 Z"/>
</g>

<g id="iconos_1_Layer1_0_MEMBER_3_MEMBER_5_FILL">
<path fill="#80CCE6" stroke="none" d="
M -87.75 -49.25
L -100.75 -49.25 -100.75 -36.25 -87.75 -36.25 -87.75 -49.25 Z"/>
</g>

<g id="iconos_1_Layer1_0_MEMBER_3_MEMBER_6_FILL">
<path fill="#80CCE6" stroke="none" d="
M -87.75 -49.25
L -100.75 -49.25 -100.75 -36.25 -87.75 -36.25 -87.75 -49.25 Z"/>
</g>

<g id="iconos_1_Layer1_0_MEMBER_3_MEMBER_7_FILL">
<path fill="#80CCE6" stroke="none" d="
M -87.75 -49.25
L -100.75 -49.25 -100.75 -36.25 -87.75 -36.25 -87.75 -49.25 Z"/>
</g>

<g id="iconos_1_Layer1_0_MEMBER_3_MEMBER_10_FILL">
<path fill="#80CCE6" stroke="none" d="
M 158 28.95
L 154.2 28.95 154.2 35.35 158 35.35 158 28.95 Z"/>
</g>

<g id="iconos_1_Layer0_0_FILL">
<path fill="#004966" fill-opacity="0" stroke="none" d="
M 63.15 -60
L -56.85 -60 -56.85 60 63.15 60 63.15 -60 Z"/>
</g>

<g id="iconos_2_Layer1_0_FILL">
<path fill="#0099CC" stroke="none" d="
M 209.7 -99.3
Q 197.85 -100.35 184.55 -108.75 184.75 -102.65 187 -97.25
L 187 -97.1
Q 187.5 -95.95 188.25 -94.7
L 188.25 -94.6
Q 189.5 -92.1 191.25 -89.9 192.7 -88.05 194.3 -86.4 194.95 -85.8 195.75 -85.05 195.85 -85.2 196.05 -85.2 203.45 -87.5 208.95 -90.4 213 -92.65 215.95 -95.1
L 216 -95.1
Q 216.65 -95.8 217.4 -96.45 213.05 -96.65 209.7 -99.3
M 231.6 -141.3
Q 229.95 -142 228.2 -142.55 227.6 -142.15 227.2 -141.6
L 227.05 -141.6
Q 217.25 -133.5 214.05 -123.5 216 -124.15 218.2 -124.15 219.7 -124.15 221.15 -123.85 223.6 -124.95 226.25 -125.7 236.1 -128.7 247.15 -127.8 245.05 -131.2 242.15 -134.2 237.35 -139 231.6 -141.3 Z"/>

<path fill="#004966" stroke="none" d="
M 228 -100.55
L 228 -100.4
Q 225.6 -98.05 222.65 -97.05 222.05 -96.2 221.35 -95.4 219.9 -93.9 218.4 -92.3 215 -89.55 210.75 -87.25
L 210.6 -87.25
Q 205.6 -84.55 199.15 -82.45 207.4 -76.5 218.2 -76.5 222 -76.5 225.5 -77.2 225.5 -77.5 225.6 -77.85 227.6 -83.45 228.3 -89.1 228.6 -91.4 228.7 -93.75 228.85 -95.2 228.85 -96.55
L 228.85 -96.65
Q 228.85 -98.9 228.6 -101.15 228.3 -100.8 228 -100.55
M 199.5 -138.45
Q 199.1 -131.5 201.4 -124.55 202.85 -120 205.4 -115.7 206.4 -118 208.35 -120 209.1 -120.75 209.8 -121.25 210.1 -123 210.75 -124.55 213.85 -135.1 223.75 -143.6 221.15 -144 218.2 -144 211 -144 204.9 -141.3 202.05 -140.15 199.5 -138.45
M 249.45 -123.3
Q 249.25 -123.65 249.2 -123.9 237.6 -125.5 227.25 -122.35 226.55 -122.05 225.95 -121.8 226.95 -121.1 228 -120 229.45 -118.65 230.35 -117 243.1 -111.85 250.55 -100.4 251.95 -105 251.95 -110.2 251.95 -117.25 249.45 -123.3 Z"/>

<path fill="#80CCE6" stroke="none" d="
M 232 -112.4
Q 232.05 -111.35 232.05 -110.2 232.05 -108.3 231.6 -106.45 232.4 -101.55 232.4 -96.65 232.4 -95.1 232.4 -93.7 232.25 -91.15 231.85 -88.55 231.15 -83.45 229.65 -78.45 236.5 -80.85 242.15 -86.4 243.8 -88.15 245.15 -89.9 246.95 -92.25 248.25 -94.6
L 248.25 -94.7
Q 248.65 -95.4 249 -96.15 242.8 -107.05 232 -112.4
M 195.75 -135.55
Q 194.95 -134.9 194.3 -134.2
L 194.35 -134.2
Q 189.5 -129.25 187 -123.3 185.05 -118.45 184.6 -113 195.85 -105.4 206.15 -103.5 204.35 -106.45 204.35 -110.2 204.35 -110.4 204.35 -110.55 200 -117 197.9 -123.45 195.85 -129.45 195.75 -135.55 Z"/>
</g>

<g id="iconos_2_Layer0_0_FILL">
<path fill="#004966" fill-opacity="0" stroke="none" d="
M 63.15 -60
L -56.85 -60 -56.85 60 63.15 60 63.15 -60 Z"/>
</g>

<g id="iconos_3_Layer1_0_MEMBER_0_FILL">
<path fill="#0099CC" stroke="none" d="
M 259.3 -5.3
L 264.45 -0.15
Q 265.3 7.25 260.4 9.75
L 253.05 9.75
Q 252.75 9.75 252.5 9.8 251.95 12.95 251.95 16.4 251.95 19.85 252.5 23.1 252.75 23.1 253.05 23.1
L 260.3 23.1
Q 264.75 25.05 264.45 33
L 259.3 38.15
Q 259.1 38.35 258.9 38.6 260.8 41.2 263.2 43.6 265.65 46.05 268.3 47.95 268.5 47.75 268.7 47.55
L 273.85 42.45
Q 279.3 41.6 283.8 46.5
L 283.8 53.8
Q 283.8 54.1 283.85 54.4 287.05 54.9 290.45 54.9 293.9 54.9 297.15 54.4 297.15 54.1 297.15 53.8
L 297.15 46.55
Q 301.9 41.65 307 42.4
L 312.2 47.55
Q 312.4 47.75 312.6 47.95 315.25 46 317.65 43.6 320.1 41.15 322 38.55 321.85 38.35 321.65 38.15
L 316.45 33
Q 316.55 28 320.45 23.1
L 327.85 23.1
Q 328.15 23.1 328.45 23.1 328.95 19.85 328.95 16.4 328.95 12.95 328.45 9.8 328.15 9.75 327.85 9.75
L 320.5 9.75
Q 314.5 5.05 316.4 -0.05
L 321.65 -5.3
Q 321.85 -5.5 322.05 -5.7 320.1 -8.35 317.65 -10.8 315.25 -13.2 312.6 -15.1 312.4 -14.95 312.2 -14.75
L 307 -9.5
Q 301.7 -8.2 297.15 -13.55
L 297.15 -21
Q 297.15 -21.3 297.15 -21.55 293.9 -22.1 290.45 -22.1 287.05 -22.1 283.85 -21.55 283.8 -21.3 283.8 -21
L 283.8 -13.6
Q 279.05 -9.4 273.95 -9.5
L 268.7 -14.75
Q 268.5 -14.95 268.3 -15.15 265.65 -13.25 263.2 -10.8 260.8 -8.4 258.9 -5.75 259.1 -5.5 259.3 -5.3 Z"/>
</g>

<g id="iconos_3_Layer1_0_MEMBER_1_FILL">
<path fill="#80CCE6" stroke="none" d="
M -17.5 15.5
Q -18.4 25.6 -11.9 33.35 -5.35 41.1 4.7 42 14.8 42.9 22.55 36.35 30.3 29.85 31.2 19.75 32.1 9.7 25.6 1.95 19.05 -5.8 8.95 -6.7 -1.1 -7.6 -8.85 -1.1 -16.6 5.45 -17.5 15.5 Z"/>
</g>

<g id="iconos_3_Layer1_0_MEMBER_2_FILL">
<path fill="#004966" stroke="none" d="
M 290.8 2.35
L 283.95 19.1 291.25 19.1 284.45 34.75 300.45 15.25 293.55 15.25 301.25 2.6 290.8 2.35 Z"/>
</g>

<g id="iconos_3_Layer0_0_FILL">
<path fill="#004966" fill-opacity="0" stroke="none" d="
M 63.15 -60
L -56.85 -60 -56.85 60 63.15 60 63.15 -60 Z"/>
</g>

<path id="iconos_1_Layer1_0_MEMBER_1_MEMBER_8_1_STROKES" stroke="#004966" stroke-width="1" stroke-linejoin="round" stroke-linecap="round" fill="none" d="
M 162.8 3.95
L 161.75 4 161.75 7.1 162.3 10.55 162.5 12 163 15.5
M 161.1 3.4
L 161.75 3.4 161.75 2.95
M 160.75 4
L 161.75 4 161.75 3.4 162.55 3.3
M 161.75 10.55
L 161.25 10.5 161 12 161.75 12 161.75 10.55 161.75 7.1 161.25 10.5
M 161 12
L 160.45 15.5
M 162.5 12
L 161.75 12 161.75 15.5
M 161.75 10.55
L 162.3 10.55"/>

<path id="iconos_1_Layer1_0_MEMBER_1_MEMBER_9_1_STROKES" stroke="#004966" stroke-width="1" stroke-linejoin="round" stroke-linecap="round" fill="none" d="
M 165.6 -4.05
L 166.25 -4.1 166.25 -4.5
M 165.25 -3.5
L 166.25 -3.5 166.25 -4.1 167.05 -4.15
M 167.3 -3.5
L 166.25 -3.5 166.25 -0.3 166.8 3.1 167 4.55 167.5 8
M 165.5 4.55
L 166.25 4.55 166.25 3.05 165.75 3 165.5 4.55 164.95 8
M 166.25 4.55
L 167 4.55
M 166.25 -0.3
L 166.25 3.05 166.8 3.1
M 166.25 4.55
L 166.25 8
M 166.25 -0.3
L 165.75 3"/>

<path id="iconos_1_Layer1_0_MEMBER_2_MEMBER_11_1_STROKES" stroke="#004966" stroke-width="1" stroke-linejoin="round" stroke-linecap="round" fill="none" d="
M 152.7 -25.35
L 152.7 -24.95 153.5 -25
M 152.05 -24.9
L 152.7 -24.95 152.7 -24.35 153.75 -24.35
M 152.7 -24.35
L 152.7 -21.2 153.25 -17.75 153.45 -16.3 153.95 -12.85
M 152.7 -21.2
L 152.7 -17.8 153.25 -17.75
M 152.7 -21.2
L 152.2 -17.85 152.7 -17.8 152.7 -16.3 153.45 -16.3
M 152.2 -17.85
L 151.95 -16.3 152.7 -16.3 152.7 -12.85
M 151.95 -16.3
L 151.4 -12.85
M 151.65 -24.35
L 152.7 -24.35"/>

<path id="iconos_1_Layer1_0_MEMBER_3_MEMBER_8_1_STROKES" stroke="#004966" stroke-width="1" stroke-linejoin="round" stroke-linecap="round" fill="none" d="
M 126.35 -8.95
L 126.35 -8.5 127.2 -8.6
M 126.35 -8.5
L 126.35 -7.85 127.4 -7.95
M 125.75 -8.5
L 126.35 -8.5
M 125.35 -7.85
L 126.35 -7.85 126.35 -4.75 126.9 -1.3 127.15 0.1 127.65 3.6
M 125.85 -1.4
L 126.35 -1.3 126.35 -4.75 125.85 -1.4 125.65 0.1 126.35 0.1 126.35 -1.3 126.9 -1.3
M 127.15 0.1
L 126.35 0.1 126.35 3.6
M 125.65 0.1
L 125.1 3.6"/>

<path id="iconos_1_Layer1_0_MEMBER_3_MEMBER_9_1_STROKES" stroke="#004966" stroke-width="1" stroke-linejoin="round" stroke-linecap="round" fill="none" d="
M 122.7 -3.5
L 121.65 -3.5 121.65 -0.3 122.2 3.1 122.45 4.55 122.95 8
M 121.65 -4.5
L 121.65 -4.1 122.5 -4.15
M 121.65 -4.1
L 121.65 -3.5 120.65 -3.5
M 121.05 -4.05
L 121.65 -4.1
M 122.45 4.55
L 121.65 4.55 121.65 8
M 122.2 3.1
L 121.65 3.05 121.65 4.55 120.95 4.55 120.35 8
M 121.65 3.05
L 121.15 3 120.95 4.55
M 121.65 3.05
L 121.65 -0.3 121.15 3"/>

<path id="iconos_3_Layer1_0_MEMBER_2_1_STROKES" stroke="#004966" stroke-width="1" stroke-linejoin="round" stroke-linecap="round" fill="none" d="
M 290.8 2.35
L 283.95 19.1 291.25 19.1 284.45 34.75 300.45 15.25 293.55 15.25 301.25 2.6 290.8 2.35 Z"/>
</defs>

<g transform="matrix( 1, 0, 0, 1, 56.85,60) ">
<g transform="matrix( 1, 0, 0, 1, 0,0) ">
<use xlink:href="#iconos_0_Layer1_0_FILL"/>
</g>

<g transform="matrix( 0.4632720947265625, 0, 0, 0.4632720947265625, 202.2,148.3) ">
<use xlink:href="#iconos_0_Layer1_0_MEMBER_0_MEMBER_0_FILL"/>
</g>

<g transform="matrix( 1, 0, 0, 1, 0,0) ">
<use xlink:href="#iconos_0_Layer1_0_MEMBER_0_MEMBER_1_FILL"/>
</g>

<g transform="matrix( 1, 0, 0, 1, 0,0) ">
<use xlink:href="#iconos_0_Layer0_0_FILL"/>
</g>
</g>

<g transform="matrix( 1, 0, 0, 1, 176.85,60) ">
<g transform="matrix( 1, 0, 0, 1, -142.65,-13.75) ">
<use xlink:href="#iconos_1_Layer1_0_MEMBER_0_FILL"/>
</g>

<g transform="matrix( 0.612030029296875, 0, 0, 0.55255126953125, -82.45,20.3) ">
<use xlink:href="#iconos_1_Layer1_0_MEMBER_1_MEMBER_0_FILL"/>
</g>

<g transform="matrix( 0.277435302734375, 0, 0, 0.277435302734375, 57.1,10.95) ">
<use xlink:href="#iconos_1_Layer1_0_MEMBER_1_MEMBER_1_FILL"/>
</g>

<g transform="matrix( 0.277435302734375, 0, 0, 0.277435302734375, 51.75,16.15) ">
<use xlink:href="#iconos_1_Layer1_0_MEMBER_1_MEMBER_2_FILL"/>
</g>

<g transform="matrix( 0.277435302734375, 0, 0, 0.277435302734375, 45.7,26.1) ">
<use xlink:href="#iconos_1_Layer1_0_MEMBER_1_MEMBER_3_FILL"/>
</g>

<g transform="matrix( 0.277435302734375, 0, 0, 0.277435302734375, 51.75,10.95) ">
<use xlink:href="#iconos_1_Layer1_0_MEMBER_1_MEMBER_4_FILL"/>
</g>

<g transform="matrix( 0.277435302734375, 0, 0, 0.277435302734375, 57.1,26.1) ">
<use xlink:href="#iconos_1_Layer1_0_MEMBER_1_MEMBER_5_FILL"/>
</g>

<g transform="matrix( 0.277435302734375, 0, 0, 0.277435302734375, 57.1,33.25) ">
<use xlink:href="#iconos_1_Layer1_0_MEMBER_1_MEMBER_6_FILL"/>
</g>

<g transform="matrix( 0.277435302734375, 0, 0, 0.277435302734375, 45.7,37.9) ">
<use xlink:href="#iconos_1_Layer1_0_MEMBER_1_MEMBER_7_FILL"/>
</g>

<g transform="matrix( 1, 0, 0, 1, -142.65,-13.75) ">
<use xlink:href="#iconos_1_Layer1_0_MEMBER_1_MEMBER_8_1_STROKES"/>
</g>

<g transform="matrix( 1, 0, 0, 1, -142.65,-13.75) ">
<use xlink:href="#iconos_1_Layer1_0_MEMBER_1_MEMBER_9_1_STROKES"/>
</g>

<g transform="matrix( 1.11029052734375, 0, 0, 1.11029052734375, -149.9,1.9) ">
<use xlink:href="#iconos_1_Layer1_0_MEMBER_1_MEMBER_10_FILL"/>
</g>

<g transform="matrix( 0.612030029296875, 0, 0, 0.612030029296875, -128.65,18.05) ">
<use xlink:href="#iconos_1_Layer1_0_MEMBER_2_MEMBER_0_FILL"/>
</g>

<g transform="matrix( 0.277435302734375, 0, 0, 0.277435302734375, 22.55,-10.15) ">
<use xlink:href="#iconos_1_Layer1_0_MEMBER_2_MEMBER_1_FILL"/>
</g>

<g transform="matrix( 0.277435302734375, 0, 0, 0.277435302734375, 22.55,-3.1) ">
<use xlink:href="#iconos_1_Layer1_0_MEMBER_2_MEMBER_2_FILL"/>
</g>

<g transform="matrix( 0.277435302734375, 0, 0, 0.277435302734375, 29.6,-10.15) ">
<use xlink:href="#iconos_1_Layer1_0_MEMBER_2_MEMBER_3_FILL"/>
</g>

<g transform="matrix( 0.277435302734375, 0, 0, 0.277435302734375, 22.55,3.4) ">
<use xlink:href="#iconos_1_Layer1_0_MEMBER_2_MEMBER_4_FILL"/>
</g>

<g transform="matrix( 0.277435302734375, 0, 0, 0.277435302734375, 22.55,31.8) ">
<use xlink:href="#iconos_1_Layer1_0_MEMBER_2_MEMBER_5_FILL"/>
</g>

<g transform="matrix( 0.277435302734375, 0, 0, 0.277435302734375, 29.6,16.9) ">
<use xlink:href="#iconos_1_Layer1_0_MEMBER_2_MEMBER_6_FILL"/>
</g>

<g transform="matrix( 0.277435302734375, 0, 0, 0.277435302734375, 29.6,9.65) ">
<use xlink:href="#iconos_1_Layer1_0_MEMBER_2_MEMBER_7_FILL"/>
</g>

<g transform="matrix( 0.277435302734375, 0, 0, 0.277435302734375, 22.55,16.9) ">
<use xlink:href="#iconos_1_Layer1_0_MEMBER_2_MEMBER_8_FILL"/>
</g>

<g transform="matrix( 0.277435302734375, 0, 0, 0.277435302734375, 35.6,23.85) ">
<use xlink:href="#iconos_1_Layer1_0_MEMBER_2_MEMBER_9_FILL"/>
</g>

<g transform="matrix( 0.277435302734375, 0, 0, 0.277435302734375, 22.55,37.9) ">
<use xlink:href="#iconos_1_Layer1_0_MEMBER_2_MEMBER_10_FILL"/>
</g>

<g transform="matrix( 1, 0, 0, 1, -142.65,-13.75) ">
<use xlink:href="#iconos_1_Layer1_0_MEMBER_2_MEMBER_11_1_STROKES"/>
</g>

<g transform="matrix( 1.11029052734375, 0, 0, 1.11029052734375, -196.15,1.9) ">
<use xlink:href="#iconos_1_Layer1_0_MEMBER_2_MEMBER_12_FILL"/>
</g>

<g transform="matrix( 0.612030029296875, 0, 0, 0.612030029296875, -127,18.05) ">
<use xlink:href="#iconos_1_Layer1_0_MEMBER_3_MEMBER_0_FILL"/>
</g>

<g transform="matrix( 0.277435302734375, 0, 0, 0.277435302734375, 1.1,7.95) ">
<use xlink:href="#iconos_1_Layer1_0_MEMBER_3_MEMBER_1_FILL"/>
</g>

<g transform="matrix( 0.277435302734375, 0, 0, 0.277435302734375, 1.1,14.5) ">
<use xlink:href="#iconos_1_Layer1_0_MEMBER_3_MEMBER_2_FILL"/>
</g>

<g transform="matrix( 0.277435302734375, 0, 0, 0.277435302734375, 1.1,21.1) ">
<use xlink:href="#iconos_1_Layer1_0_MEMBER_3_MEMBER_3_FILL"/>
</g>

<g transform="matrix( 0.277435302734375, 0, 0, 0.277435302734375, 7.2,14.5) ">
<use xlink:href="#iconos_1_Layer1_0_MEMBER_3_MEMBER_4_FILL"/>
</g>

<g transform="matrix( 0.277435302734375, 0, 0, 0.277435302734375, 12.55,26.1) ">
<use xlink:href="#iconos_1_Layer1_0_MEMBER_3_MEMBER_5_FILL"/>
</g>

<g transform="matrix( 0.277435302734375, 0, 0, 0.277435302734375, 12.55,33.25) ">
<use xlink:href="#iconos_1_Layer1_0_MEMBER_3_MEMBER_6_FILL"/>
</g>

<g transform="matrix( 0.277435302734375, 0, 0, 0.277435302734375, 1.1,37.9) ">
<use xlink:href="#iconos_1_Layer1_0_MEMBER_3_MEMBER_7_FILL"/>
</g>

<g transform="matrix( 1, 0, 0, 1, -142.65,-13.75) ">
<use xlink:href="#iconos_1_Layer1_0_MEMBER_3_MEMBER_8_1_STROKES"/>
</g>

<g transform="matrix( 1, 0, 0, 1, -142.65,-13.75) ">
<use xlink:href="#iconos_1_Layer1_0_MEMBER_3_MEMBER_9_1_STROKES"/>
</g>

<g transform="matrix( 1.11029052734375, 0, 0, 1.11029052734375, -194.45,1.9) ">
<use xlink:href="#iconos_1_Layer1_0_MEMBER_3_MEMBER_10_FILL"/>
</g>

<g transform="matrix( 1, 0, 0, 1, 0,0) ">
<use xlink:href="#iconos_1_Layer0_0_FILL"/>
</g>
</g>

<g transform="matrix( 1, 0, 0, 1, 296.85,60) ">
<g transform="matrix( 1, 0, 0, 1, -218.25,110.25) ">
<use xlink:href="#iconos_2_Layer1_0_FILL"/>
</g>

<g transform="matrix( 1, 0, 0, 1, 0,0) ">
<use xlink:href="#iconos_2_Layer0_0_FILL"/>
</g>
</g>

<g transform="matrix( 1, 0, 0, 1, 416.85,60) ">
<g transform="matrix( 1, 0, 0, 1, -290.45,-16.4) ">
<use xlink:href="#iconos_3_Layer1_0_MEMBER_0_FILL"/>
</g>

<g transform="matrix( 0.888580322265625, 0, 0, 0.888580322265625, -6.1,-15.6) ">
<use xlink:href="#iconos_3_Layer1_0_MEMBER_1_FILL"/>
</g>

<g transform="matrix( 1, 0, 0, 1, -290.45,-16.4) ">
<use xlink:href="#iconos_3_Layer1_0_MEMBER_2_FILL"/>

<use xlink:href="#iconos_3_Layer1_0_MEMBER_2_1_STROKES"/>
</g>

<g transform="matrix( 1, 0, 0, 1, 0,0) ">
<use xlink:href="#iconos_3_Layer0_0_FILL"/>
</g>
</g>
</svg>
