
<svg xmlns="http://www.w3.org/2000/svg" version="1.1" xmlns:xlink="http://www.w3.org/1999/xlink" preserveAspectRatio="none" x="0px" y="0px" width="390px" height="30px" viewBox="0 0 390 30">
<defs>
<g id="MenuBtnAnim_12_Layer1_0_MEMBER_0_FILL">
<path fill="#C4DDE6" stroke="none" d="
M 503.5 8.4
Q 502.6 7.5 501.3 7.5
L 435.45 7.5
Q 434.15 7.5 433.25 8.4 432.35 9.3 432.35 10.6
L 432.35 10.65
Q 432.35 11.95 433.25 12.85 434.15 13.75 435.45 13.75
L 501.3 13.75
Q 502.6 13.75 503.5 12.85 504.4 11.95 504.4 10.65
L 504.4 10.6
Q 504.4 9.3 503.5 8.4 Z"/>
</g>

<g id="MenuBtnAnim_12_Layer1_0_MEMBER_1_FILL">
<path fill="#C4DDE6" stroke="none" d="
M 503.5 8.4
Q 502.6 7.5 501.3 7.5
L 435.45 7.5
Q 434.15 7.5 433.25 8.4 432.35 9.3 432.35 10.6
L 432.35 10.65
Q 432.35 11.95 433.25 12.85 434.15 13.75 435.45 13.75
L 501.3 13.75
Q 502.6 13.75 503.5 12.85 504.4 11.95 504.4 10.65
L 504.4 10.6
Q 504.4 9.3 503.5 8.4 Z"/>
</g>

<g id="MenuBtnAnim_12_Layer0_0_FILL">
<path fill="#0000CC" fill-opacity="0" stroke="none" d="
M 15 -15
L -15 -15 -15 15 15 15 15 -15 Z"/>
</g>

<g id="Interpolaci_n_4_0_Layer0_0_FILL">
<path fill="#C4DDE6" stroke="none" d="
M 503.5 8.4
Q 502.6 7.5 501.3 7.5
L 435.45 7.5
Q 434.15 7.5 433.25 8.4 432.35 9.3 432.35 10.6
L 432.35 10.65
Q 432.35 11.95 433.25 12.85 434.15 13.75 435.45 13.75
L 501.3 13.75
Q 502.6 13.75 503.5 12.85 504.4 11.95 504.4 10.65
L 504.4 10.6
Q 504.4 9.3 503.5 8.4 Z"/>
</g>

<g id="Interpolaci_n_3_0_Layer0_0_FILL">
<path fill="#C4DDE6" stroke="none" d="
M 503.5 8.4
Q 502.6 7.5 501.3 7.5
L 435.45 7.5
Q 434.15 7.5 433.25 8.4 432.35 9.3 432.35 10.6
L 432.35 10.65
Q 432.35 11.95 433.25 12.85 434.15 13.75 435.45 13.75
L 501.3 13.75
Q 502.6 13.75 503.5 12.85 504.4 11.95 504.4 10.65
L 504.4 10.6
Q 504.4 9.3 503.5 8.4 Z"/>
</g>

<g id="Interpolaci_n_2_0_Layer0_0_FILL">
<path fill="#C4DDE6" stroke="none" d="
M 503.5 8.4
Q 502.6 7.5 501.3 7.5
L 435.45 7.5
Q 434.15 7.5 433.25 8.4 432.35 9.3 432.35 10.6
L 432.35 10.65
Q 432.35 11.95 433.25 12.85 434.15 13.75 435.45 13.75
L 501.3 13.75
Q 502.6 13.75 503.5 12.85 504.4 11.95 504.4 10.65
L 504.4 10.6
Q 504.4 9.3 503.5 8.4 Z"/>
</g>

<g id="Interpolaci_n_1_0_Layer0_0_FILL">
<path fill="#C4DDE6" stroke="none" d="
M 503.5 8.4
Q 502.6 7.5 501.3 7.5
L 435.45 7.5
Q 434.15 7.5 433.25 8.4 432.35 9.3 432.35 10.6
L 432.35 10.65
Q 432.35 11.95 433.25 12.85 434.15 13.75 435.45 13.75
L 501.3 13.75
Q 502.6 13.75 503.5 12.85 504.4 11.95 504.4 10.65
L 504.4 10.6
Q 504.4 9.3 503.5 8.4 Z"/>
</g>

<g id="MenuBtnAnim_11_Layer0_0_FILL">
<path fill="#0000CC" fill-opacity="0" stroke="none" d="
M 15 -15
L -15 -15 -15 15 15 15 15 -15 Z"/>
</g>

<g id="MenuBtnAnim_10_Layer0_0_FILL">
<path fill="#0000CC" fill-opacity="0" stroke="none" d="
M 15 -15
L -15 -15 -15 15 15 15 15 -15 Z"/>
</g>

<g id="MenuBtnAnim_9_Layer0_0_FILL">
<path fill="#0000CC" fill-opacity="0" stroke="none" d="
M 15 -15
L -15 -15 -15 15 15 15 15 -15 Z"/>
</g>

<g id="MenuBtnAnim_8_Layer0_0_FILL">
<path fill="#0000CC" fill-opacity="0" stroke="none" d="
M 15 -15
L -15 -15 -15 15 15 15 15 -15 Z"/>
</g>

<g id="MenuBtnAnim_7_Layer0_0_FILL">
<path fill="#0000CC" fill-opacity="0" stroke="none" d="
M 15 -15
L -15 -15 -15 15 15 15 15 -15 Z"/>
</g>

<g id="MenuBtnAnim_6_Layer0_0_FILL">
<path fill="#0000CC" fill-opacity="0" stroke="none" d="
M 15 -15
L -15 -15 -15 15 15 15 15 -15 Z"/>
</g>

<g id="MenuBtnAnim_5_Layer0_0_FILL">
<path fill="#0000CC" fill-opacity="0" stroke="none" d="
M 15 -15
L -15 -15 -15 15 15 15 15 -15 Z"/>
</g>

<g id="MenuBtnAnim_4_Layer0_0_FILL">
<path fill="#0000CC" fill-opacity="0" stroke="none" d="
M 15 -15
L -15 -15 -15 15 15 15 15 -15 Z"/>
</g>

<g id="MenuBtnAnim_3_Layer0_0_FILL">
<path fill="#0000CC" fill-opacity="0" stroke="none" d="
M 15 -15
L -15 -15 -15 15 15 15 15 -15 Z"/>
</g>

<g id="MenuBtnAnim_2_Layer0_0_FILL">
<path fill="#0000CC" fill-opacity="0" stroke="none" d="
M 15 -15
L -15 -15 -15 15 15 15 15 -15 Z"/>
</g>

<g id="MenuBtnAnim_1_Layer0_0_FILL">
<path fill="#0000CC" fill-opacity="0" stroke="none" d="
M 15 -15
L -15 -15 -15 15 15 15 15 -15 Z"/>
</g>

<g id="MenuBtnAnim_0_Layer0_0_FILL">
<path fill="#0000CC" fill-opacity="0" stroke="none" d="
M 15 -15
L -15 -15 -15 15 15 15 15 -15 Z"/>
</g>

<path id="MenuBtnAnim_12_Layer1_0_MEMBER_0_1_STROKES" stroke="#FFFFFF" stroke-opacity="0.13725490196078433" stroke-width="2" stroke-linejoin="round" stroke-linecap="round" fill="none" d="
M -9.866824340820315 7.330830383300778
L 7.331182861328131 -9.867176818847668
Q 7.670703124999989 -10.206697082519526 8.27258911132813 -10.074902343750011 8.874475097656244 -9.943107604980469 9.404345703124989 -9.413217163085946
L 9.424725341796886 -9.392836761474612
Q 9.95459594726563 -8.86294631958009 10.086376953124983 -8.2610466003418 10.218157958984364 -7.65914688110351 9.878637695312506 -7.319626617431652
L -7.31936950683594 9.878380584716794
Q -7.658889770507827 10.21790084838868 -8.26077575683594 10.086106109619138 -8.862661743164054 9.954311370849595 -9.392532348632812 9.424420928955072
L -9.412911987304682 9.404040527343739
Q -9.94278259277344 8.874150085449216 -10.074563598632821 8.27225036621094 -10.206344604492202 7.670350646972665 -9.866824340820315 7.330830383300778 Z"/>

<path id="MenuBtnAnim_12_Layer1_0_MEMBER_1_1_STROKES" stroke="#FFFFFF" stroke-opacity="0.13725490196078433" stroke-width="2" stroke-linejoin="round" stroke-linecap="round" fill="none" d="
M 9.866824340820315 7.330830383300778
L -7.331182861328131 -9.867176818847668
Q -7.670703124999989 -10.206697082519526 -8.27258911132813 -10.074902343750011 -8.874475097656244 -9.943107604980469 -9.404345703124989 -9.413217163085946
L -9.424725341796886 -9.392836761474612
Q -9.95459594726563 -8.86294631958009 -10.086376953124983 -8.2610466003418 -10.218157958984364 -7.65914688110351 -9.878637695312506 -7.319626617431652
L 7.31936950683594 9.878380584716794
Q 7.658889770507827 10.21790084838868 8.26077575683594 10.086106109619138 8.862661743164054 9.954311370849595 9.392532348632812 9.424420928955072
L 9.412911987304682 9.404040527343739
Q 9.94278259277344 8.874150085449216 10.074563598632821 8.27225036621094 10.206344604492202 7.670350646972665 9.866824340820315 7.330830383300778 Z"/>

<path id="Interpolaci_n_4_0_Layer0_0_1_STROKES" stroke="#FFFFFF" stroke-opacity="0.13725490196078433" stroke-width="2" stroke-linejoin="round" stroke-linecap="round" fill="none" d="
M -12.15804824829101 -1.7766510009765621
L 12.164933776855463 -1.7766510009765621
Q 12.645114135742205 -1.7766510009765621 12.977546691894531 -1.2578491210937495 13.309979248046858 -0.7390472412109368 13.309979248046858 0.010333251953125178
L 13.309979248046858 0.03915557861328178
Q 13.309979248046858 0.7885360717773438 12.977546691894531 1.3073379516601564 12.645114135742205 1.826139831542969 12.164933776855463 1.826139831542969
L -12.15804824829101 1.826139831542969
Q -12.638228607177751 1.826139831542969 -12.970661163330078 1.3073379516601564 -13.303093719482405 0.7885360717773438 -13.303093719482405 0.03915557861328178
L -13.303093719482405 0.010333251953125178
Q -13.303093719482405 -0.7390472412109368 -12.970661163330078 -1.2578491210937495 -12.638228607177751 -1.7766510009765621 -12.15804824829101 -1.7766510009765621 Z"/>

<path id="Interpolaci_n_3_0_Layer0_0_1_STROKES" stroke="#FFFFFF" stroke-opacity="0.13725490196078433" stroke-width="2" stroke-linejoin="round" stroke-linecap="round" fill="none" d="
M -9.31342163085938 -1.7766510009765621
L 9.375695800781244 -1.7766510009765621
Q 9.744653320312494 -1.7766510009765621 10.000085449218744 -1.2578491210937495 10.255517578124994 -0.7390472412109368 10.255517578124994 0.010333251953125178
L 10.255517578124994 0.03915557861328178
Q 10.255517578124994 0.7885360717773438 10.000085449218744 1.3073379516601564 9.744653320312494 1.826139831542969 9.375695800781244 1.826139831542969
L -9.31342163085938 1.826139831542969
Q -9.68237915039063 1.826139831542969 -9.93781127929688 1.3073379516601564 -10.19324340820313 0.7885360717773438 -10.19324340820313 0.03915557861328178
L -10.19324340820313 0.010333251953125178
Q -10.19324340820313 -0.7390472412109368 -9.93781127929688 -1.2578491210937495 -9.68237915039063 -1.7766510009765621 -9.31342163085938 -1.7766510009765621 Z"/>

<path id="Interpolaci_n_2_0_Layer0_0_1_STROKES" stroke="#FFFFFF" stroke-opacity="0.13725490196078433" stroke-width="2" stroke-linejoin="round" stroke-linecap="round" fill="none" d="
M -12.15804824829101 -1.8266510009765629
L 12.164933776855463 -1.8266510009765629
Q 12.645114135742205 -1.8266510009765629 12.977546691894531 -1.3078491210937502 13.309979248046858 -0.7890472412109375 13.309979248046858 -0.03966674804687553
L 13.309979248046858 -0.010844421386718928
Q 13.309979248046858 0.738536071777343 12.977546691894531 1.2573379516601557 12.645114135742205 1.7761398315429684 12.164933776855463 1.7761398315429684
L -12.15804824829101 1.7761398315429684
Q -12.638228607177751 1.7761398315429684 -12.970661163330078 1.2573379516601557 -13.303093719482405 0.738536071777343 -13.303093719482405 -0.010844421386718928
L -13.303093719482405 -0.03966674804687553
Q -13.303093719482405 -0.7890472412109375 -12.970661163330078 -1.3078491210937502 -12.638228607177751 -1.8266510009765629 -12.15804824829101 -1.8266510009765629 Z"/>

<path id="Interpolaci_n_1_0_Layer0_0_1_STROKES" stroke="#FFFFFF" stroke-opacity="0.13725490196078433" stroke-width="2" stroke-linejoin="round" stroke-linecap="round" fill="none" d="
M -8.2448112487793 -1.8266510009765629
L 8.246827697753915 -1.8266510009765629
Q 8.572402954101577 -1.8266510009765629 8.797801208496097 -1.3078491210937502 9.023199462890616 -0.7890472412109375 9.023199462890616 -0.03966674804687553
L 9.023199462890616 -0.010844421386718928
Q 9.023199462890616 0.738536071777343 8.797801208496097 1.2573379516601557 8.572402954101577 1.7761398315429684 8.246827697753915 1.7761398315429684
L -8.2448112487793 1.7761398315429684
Q -8.570386505126962 1.7761398315429684 -8.795784759521482 1.2573379516601557 -9.021183013916001 0.738536071777343 -9.021183013916001 -0.010844421386718928
L -9.021183013916001 -0.03966674804687553
Q -9.021183013916001 -0.7890472412109375 -8.795784759521482 -1.3078491210937502 -8.570386505126962 -1.8266510009765629 -8.2448112487793 -1.8266510009765629 Z"/>
</defs>

<g transform="matrix( 1, 0, 0, 1, 15,15) ">
<g transform="matrix( 0.26116943359375, -0.26116943359375, 0.4075927734375, 0.4076080322265625, -126.65,118) ">
<use xlink:href="#MenuBtnAnim_12_Layer1_0_MEMBER_0_FILL"/>

<use xlink:href="#MenuBtnAnim_12_Layer1_0_MEMBER_0_1_STROKES" transform="matrix( 1.91448974609375, 1.2266845703125, -1.9144287109375, 1.2266845703125, 468.35,10.6) "/>
</g>

<g transform="matrix( -0.26116943359375, -0.26116943359375, -0.4075927734375, 0.4076080322265625, 126.65,118) ">
<use xlink:href="#MenuBtnAnim_12_Layer1_0_MEMBER_1_FILL"/>

<use xlink:href="#MenuBtnAnim_12_Layer1_0_MEMBER_1_1_STROKES" transform="matrix( -1.91448974609375, -1.2266845703125, -1.9144287109375, 1.2266845703125, 468.35,10.6) "/>
</g>

<g transform="matrix( 1, 0, 0, 1, 0,0) ">
<use xlink:href="#MenuBtnAnim_12_Layer0_0_FILL"/>
</g>
</g>

<g transform="matrix( 1, 0, 0, 1, 45,15) ">
<g transform="matrix( 0.714080810546875, -0.7000274658203125, 0.7000274658203125, 0.714080810546875, 0.05,0) ">
<g transform="matrix( 0.3693695068359375, 0, 0, 0.576446533203125, -173,-6.1) ">
<use xlink:href="#Interpolaci_n_4_0_Layer0_0_FILL"/>

<use xlink:href="#Interpolaci_n_4_0_Layer0_0_1_STROKES" transform="matrix( 2.707305908203125, 0, 0, 1.7347564697265625, 468.35,10.55) "/>
</g>
</g>

<g transform="matrix( 0.70166015625, 0.71246337890625, -0.71246337890625, 0.70166015625, 1.85,2.1) ">
<g transform="matrix( 0.2838134765625, 0, 0, 0.576446533203125, -132.9,-6.1) ">
<use xlink:href="#Interpolaci_n_3_0_Layer0_0_FILL"/>

<use xlink:href="#Interpolaci_n_3_0_Layer0_0_1_STROKES" transform="matrix( 3.5234375, 0, 0, 1.7347564697265625, 468.25,10.55) "/>
</g>
</g>

<g transform="matrix( 0.716461181640625, 0.6975250244140625, -0.6975250244140625, 0.716461181640625, -0.05,0) ">
<g transform="matrix( 0.3693695068359375, 0, 0, 0.576446533203125, -173,-6.15) ">
<use xlink:href="#Interpolaci_n_2_0_Layer0_0_FILL"/>

<use xlink:href="#Interpolaci_n_2_0_Layer0_0_1_STROKES" transform="matrix( 2.707305908203125, 0, 0, 1.7347564697265625, 468.35,10.65) "/>
</g>
</g>

<g transform="matrix( 0.7135009765625, -0.70062255859375, 0.70062255859375, 0.7135009765625, 3,-2.75) ">
<g transform="matrix( 0.2504425048828125, 0, 0, 0.576446533203125, -117.3,-6.15) ">
<use xlink:href="#Interpolaci_n_1_0_Layer0_0_FILL"/>

<use xlink:href="#Interpolaci_n_1_0_Layer0_0_1_STROKES" transform="matrix( 3.992919921875, 0, 0, 1.7347564697265625, 468.35,10.65) "/>
</g>
</g>

<g transform="matrix( 1, 0, 0, 1, 0,0) ">
<use xlink:href="#MenuBtnAnim_11_Layer0_0_FILL"/>
</g>
</g>

<g transform="matrix( 1, 0, 0, 1, 75,15) ">
<g transform="matrix( 0.76068115234375, -0.6465606689453125, 0.6465606689453125, 0.76068115234375, 0.25,0.7) ">
<g transform="matrix( 0.3693695068359375, 0, 0, 0.576446533203125, -173,-6.1) ">
<use xlink:href="#Interpolaci_n_4_0_Layer0_0_FILL"/>

<use xlink:href="#Interpolaci_n_4_0_Layer0_0_1_STROKES" transform="matrix( 2.707305908203125, 0, 0, 1.7347564697265625, 468.35,10.55) "/>
</g>
</g>

<g transform="matrix( 0.7494659423828125, 0.6595001220703125, -0.6595001220703125, 0.7494659423828125, 1.85,2.2) ">
<g transform="matrix( 0.2838134765625, 0, 0, 0.576446533203125, -132.9,-6.1) ">
<use xlink:href="#Interpolaci_n_3_0_Layer0_0_FILL"/>

<use xlink:href="#Interpolaci_n_3_0_Layer0_0_1_STROKES" transform="matrix( 3.5234375, 0, 0, 1.7347564697265625, 468.25,10.55) "/>
</g>
</g>

<g transform="matrix( 0.763275146484375, 0.6434478759765625, -0.6434478759765625, 0.763275146484375, -0.25,-0.3) ">
<g transform="matrix( 0.3693695068359375, 0, 0, 0.576446533203125, -173,-6.15) ">
<use xlink:href="#Interpolaci_n_2_0_Layer0_0_FILL"/>

<use xlink:href="#Interpolaci_n_2_0_Layer0_0_1_STROKES" transform="matrix( 2.707305908203125, 0, 0, 1.7347564697265625, 468.35,10.65) "/>
</g>
</g>

<g transform="matrix( 0.76055908203125, -0.6467132568359375, 0.6467132568359375, 0.76055908203125, 2.8,-3.45) ">
<g transform="matrix( 0.2504425048828125, 0, 0, 0.576446533203125, -117.3,-6.15) ">
<use xlink:href="#Interpolaci_n_1_0_Layer0_0_FILL"/>

<use xlink:href="#Interpolaci_n_1_0_Layer0_0_1_STROKES" transform="matrix( 3.992919921875, 0, 0, 1.7347564697265625, 468.35,10.65) "/>
</g>
</g>

<g transform="matrix( 1, 0, 0, 1, 0,0) ">
<use xlink:href="#MenuBtnAnim_10_Layer0_0_FILL"/>
</g>
</g>

<g transform="matrix( 1, 0, 0, 1, 105,15) ">
<g transform="matrix( 0.8042144775390625, -0.591644287109375, 0.591644287109375, 0.8042144775390625, 0.35,1.45) ">
<g transform="matrix( 0.3693695068359375, 0, 0, 0.576446533203125, -173,-6.1) ">
<use xlink:href="#Interpolaci_n_4_0_Layer0_0_FILL"/>

<use xlink:href="#Interpolaci_n_4_0_Layer0_0_1_STROKES" transform="matrix( 2.707305908203125, 0, 0, 1.7347564697265625, 468.35,10.55) "/>
</g>
</g>

<g transform="matrix( 0.796173095703125, 0.6024017333984375, -0.6024017333984375, 0.796173095703125, 1.9,2.35) ">
<g transform="matrix( 0.2838134765625, 0, 0, 0.576446533203125, -132.9,-6.1) ">
<use xlink:href="#Interpolaci_n_3_0_Layer0_0_FILL"/>

<use xlink:href="#Interpolaci_n_3_0_Layer0_0_1_STROKES" transform="matrix( 3.5234375, 0, 0, 1.7347564697265625, 468.25,10.55) "/>
</g>
</g>

<g transform="matrix( 0.806549072265625, 0.5884246826171875, -0.5884246826171875, 0.806549072265625, -0.3,-0.5) ">
<g transform="matrix( 0.3693695068359375, 0, 0, 0.576446533203125, -173,-6.15) ">
<use xlink:href="#Interpolaci_n_2_0_Layer0_0_FILL"/>

<use xlink:href="#Interpolaci_n_2_0_Layer0_0_1_STROKES" transform="matrix( 2.707305908203125, 0, 0, 1.7347564697265625, 468.35,10.65) "/>
</g>
</g>

<g transform="matrix( 0.804107666015625, -0.5917816162109375, 0.5917816162109375, 0.804107666015625, 2.75,-3.95) ">
<g transform="matrix( 0.2504425048828125, 0, 0, 0.576446533203125, -117.3,-6.15) ">
<use xlink:href="#Interpolaci_n_1_0_Layer0_0_FILL"/>

<use xlink:href="#Interpolaci_n_1_0_Layer0_0_1_STROKES" transform="matrix( 3.992919921875, 0, 0, 1.7347564697265625, 468.35,10.65) "/>
</g>
</g>

<g transform="matrix( 1, 0, 0, 1, 0,0) ">
<use xlink:href="#MenuBtnAnim_9_Layer0_0_FILL"/>
</g>
</g>

<g transform="matrix( 1, 0, 0, 1, 135,15) ">
<g transform="matrix( 0.84381103515625, -0.5338287353515625, 0.5338287353515625, 0.84381103515625, 0.45,2.2) ">
<g transform="matrix( 0.3693695068359375, 0, 0, 0.576446533203125, -173,-6.1) ">
<use xlink:href="#Interpolaci_n_4_0_Layer0_0_FILL"/>

<use xlink:href="#Interpolaci_n_4_0_Layer0_0_1_STROKES" transform="matrix( 2.707305908203125, 0, 0, 1.7347564697265625, 468.35,10.55) "/>
</g>
</g>

<g transform="matrix( 0.8367462158203125, 0.544769287109375, -0.544769287109375, 0.8367462158203125, 1.9,2.4) ">
<g transform="matrix( 0.2838134765625, 0, 0, 0.576446533203125, -132.9,-6.1) ">
<use xlink:href="#Interpolaci_n_3_0_Layer0_0_FILL"/>

<use xlink:href="#Interpolaci_n_3_0_Layer0_0_1_STROKES" transform="matrix( 3.5234375, 0, 0, 1.7347564697265625, 468.25,10.55) "/>
</g>
</g>

<g transform="matrix( 0.8458709716796875, 0.530517578125, -0.530517578125, 0.8458709716796875, -0.4,-0.75) ">
<g transform="matrix( 0.3693695068359375, 0, 0, 0.576446533203125, -173,-6.15) ">
<use xlink:href="#Interpolaci_n_2_0_Layer0_0_FILL"/>

<use xlink:href="#Interpolaci_n_2_0_Layer0_0_1_STROKES" transform="matrix( 2.707305908203125, 0, 0, 1.7347564697265625, 468.35,10.65) "/>
</g>
</g>

<g transform="matrix( 0.8437347412109375, -0.533966064453125, 0.533966064453125, 0.8437347412109375, 2.6,-4.5) ">
<g transform="matrix( 0.2504425048828125, 0, 0, 0.576446533203125, -117.3,-6.15) ">
<use xlink:href="#Interpolaci_n_1_0_Layer0_0_FILL"/>

<use xlink:href="#Interpolaci_n_1_0_Layer0_0_1_STROKES" transform="matrix( 3.992919921875, 0, 0, 1.7347564697265625, 468.35,10.65) "/>
</g>
</g>

<g transform="matrix( 1, 0, 0, 1, 0,0) ">
<use xlink:href="#MenuBtnAnim_8_Layer0_0_FILL"/>
</g>
</g>

<g transform="matrix( 1, 0, 0, 1, 165,15) ">
<g transform="matrix( 0.8792724609375, -0.4734039306640625, 0.4734039306640625, 0.8792724609375, 0.45,3) ">
<g transform="matrix( 0.3693695068359375, 0, 0, 0.576446533203125, -173,-6.1) ">
<use xlink:href="#Interpolaci_n_4_0_Layer0_0_FILL"/>

<use xlink:href="#Interpolaci_n_4_0_Layer0_0_1_STROKES" transform="matrix( 2.707305908203125, 0, 0, 1.7347564697265625, 468.35,10.55) "/>
</g>
</g>

<g transform="matrix( 0.8747711181640625, 0.481597900390625, -0.481597900390625, 0.8747711181640625, 1.85,2.55) ">
<g transform="matrix( 0.2838134765625, 0, 0, 0.576446533203125, -132.9,-6.1) ">
<use xlink:href="#Interpolaci_n_3_0_Layer0_0_FILL"/>

<use xlink:href="#Interpolaci_n_3_0_Layer0_0_1_STROKES" transform="matrix( 3.5234375, 0, 0, 1.7347564697265625, 468.25,10.55) "/>
</g>
</g>

<g transform="matrix( 0.8810577392578125, 0.4700164794921875, -0.4700164794921875, 0.8810577392578125, -0.5,-1) ">
<g transform="matrix( 0.3693695068359375, 0, 0, 0.576446533203125, -173,-6.15) ">
<use xlink:href="#Interpolaci_n_2_0_Layer0_0_FILL"/>

<use xlink:href="#Interpolaci_n_2_0_Layer0_0_1_STROKES" transform="matrix( 2.707305908203125, 0, 0, 1.7347564697265625, 468.35,10.65) "/>
</g>
</g>

<g transform="matrix( 0.87921142578125, -0.4735107421875, 0.4735107421875, 0.87921142578125, 2.5,-5.05) ">
<g transform="matrix( 0.2504425048828125, 0, 0, 0.576446533203125, -117.3,-6.15) ">
<use xlink:href="#Interpolaci_n_1_0_Layer0_0_FILL"/>

<use xlink:href="#Interpolaci_n_1_0_Layer0_0_1_STROKES" transform="matrix( 3.992919921875, 0, 0, 1.7347564697265625, 468.35,10.65) "/>
</g>
</g>

<g transform="matrix( 1, 0, 0, 1, 0,0) ">
<use xlink:href="#MenuBtnAnim_7_Layer0_0_FILL"/>
</g>
</g>

<g transform="matrix( 1, 0, 0, 1, 195,15) ">
<g transform="matrix( 0.911773681640625, -0.40765380859375, 0.40765380859375, 0.911773681640625, 0.5,3.9) ">
<g transform="matrix( 0.3693695068359375, 0, 0, 0.576446533203125, -173,-6.1) ">
<use xlink:href="#Interpolaci_n_4_0_Layer0_0_FILL"/>

<use xlink:href="#Interpolaci_n_4_0_Layer0_0_1_STROKES" transform="matrix( 2.707305908203125, 0, 0, 1.7347564697265625, 468.35,10.55) "/>
</g>
</g>

<g transform="matrix( 0.90667724609375, 0.4187774658203125, -0.4187774658203125, 0.90667724609375, 2,2.65) ">
<g transform="matrix( 0.2838134765625, 0, 0, 0.576446533203125, -132.9,-6.1) ">
<use xlink:href="#Interpolaci_n_3_0_Layer0_0_FILL"/>

<use xlink:href="#Interpolaci_n_3_0_Layer0_0_1_STROKES" transform="matrix( 3.5234375, 0, 0, 1.7347564697265625, 468.25,10.55) "/>
</g>
</g>

<g transform="matrix( 0.911956787109375, 0.4072265625, -0.4072265625, 0.911956787109375, -0.5,-1.25) ">
<g transform="matrix( 0.3693695068359375, 0, 0, 0.576446533203125, -173,-6.15) ">
<use xlink:href="#Interpolaci_n_2_0_Layer0_0_FILL"/>

<use xlink:href="#Interpolaci_n_2_0_Layer0_0_1_STROKES" transform="matrix( 2.707305908203125, 0, 0, 1.7347564697265625, 468.35,10.65) "/>
</g>
</g>

<g transform="matrix( 0.910369873046875, -0.4107513427734375, 0.4107513427734375, 0.910369873046875, 2.5,-5.6) ">
<g transform="matrix( 0.2504425048828125, 0, 0, 0.576446533203125, -117.3,-6.15) ">
<use xlink:href="#Interpolaci_n_1_0_Layer0_0_FILL"/>

<use xlink:href="#Interpolaci_n_1_0_Layer0_0_1_STROKES" transform="matrix( 3.992919921875, 0, 0, 1.7347564697265625, 468.35,10.65) "/>
</g>
</g>

<g transform="matrix( 1, 0, 0, 1, 0,0) ">
<use xlink:href="#MenuBtnAnim_6_Layer0_0_FILL"/>
</g>
</g>

<g transform="matrix( 1, 0, 0, 1, 225,15) ">
<g transform="matrix( 0.938262939453125, -0.342803955078125, 0.342803955078125, 0.938262939453125, 0.45,4.8) ">
<g transform="matrix( 0.3693695068359375, 0, 0, 0.576446533203125, -173,-6.1) ">
<use xlink:href="#Interpolaci_n_4_0_Layer0_0_FILL"/>

<use xlink:href="#Interpolaci_n_4_0_Layer0_0_1_STROKES" transform="matrix( 2.707305908203125, 0, 0, 1.7347564697265625, 468.35,10.55) "/>
</g>
</g>

<g transform="matrix( 0.935272216796875, 0.3508148193359375, -0.3508148193359375, 0.935272216796875, 2.1,2.8) ">
<g transform="matrix( 0.2838134765625, 0, 0, 0.576446533203125, -132.9,-6.1) ">
<use xlink:href="#Interpolaci_n_3_0_Layer0_0_FILL"/>

<use xlink:href="#Interpolaci_n_3_0_Layer0_0_1_STROKES" transform="matrix( 3.5234375, 0, 0, 1.7347564697265625, 468.25,10.55) "/>
</g>
</g>

<g transform="matrix( 0.9383697509765625, 0.342437744140625, -0.342437744140625, 0.9383697509765625, -0.5,-1.5) ">
<g transform="matrix( 0.3693695068359375, 0, 0, 0.576446533203125, -173,-6.15) ">
<use xlink:href="#Interpolaci_n_2_0_Layer0_0_FILL"/>

<use xlink:href="#Interpolaci_n_2_0_Layer0_0_1_STROKES" transform="matrix( 2.707305908203125, 0, 0, 1.7347564697265625, 468.35,10.65) "/>
</g>
</g>

<g transform="matrix( 0.938232421875, -0.3428955078125, 0.3428955078125, 0.938232421875, 2.7,-6.2) ">
<g transform="matrix( 0.2504425048828125, 0, 0, 0.576446533203125, -117.3,-6.15) ">
<use xlink:href="#Interpolaci_n_1_0_Layer0_0_FILL"/>

<use xlink:href="#Interpolaci_n_1_0_Layer0_0_1_STROKES" transform="matrix( 3.992919921875, 0, 0, 1.7347564697265625, 468.35,10.65) "/>
</g>
</g>

<g transform="matrix( 1, 0, 0, 1, 0,0) ">
<use xlink:href="#MenuBtnAnim_5_Layer0_0_FILL"/>
</g>
</g>

<g transform="matrix( 1, 0, 0, 1, 255,15) ">
<g transform="matrix( 0.96014404296875, -0.276275634765625, 0.276275634765625, 0.96014404296875, 0.45,5.75) ">
<g transform="matrix( 0.3693695068359375, 0, 0, 0.576446533203125, -173,-6.1) ">
<use xlink:href="#Interpolaci_n_4_0_Layer0_0_FILL"/>

<use xlink:href="#Interpolaci_n_4_0_Layer0_0_1_STROKES" transform="matrix( 2.707305908203125, 0, 0, 1.7347564697265625, 468.35,10.55) "/>
</g>
</g>

<g transform="matrix( 0.9578399658203125, 0.284088134765625, -0.284088134765625, 0.9578399658203125, 2.2,2.9) ">
<g transform="matrix( 0.2838134765625, 0, 0, 0.576446533203125, -132.9,-6.1) ">
<use xlink:href="#Interpolaci_n_3_0_Layer0_0_FILL"/>

<use xlink:href="#Interpolaci_n_3_0_Layer0_0_1_STROKES" transform="matrix( 3.5234375, 0, 0, 1.7347564697265625, 468.25,10.55) "/>
</g>
</g>

<g transform="matrix( 0.960235595703125, 0.275970458984375, -0.275970458984375, 0.960235595703125, -0.45,-1.75) ">
<g transform="matrix( 0.3693695068359375, 0, 0, 0.576446533203125, -173,-6.15) ">
<use xlink:href="#Interpolaci_n_2_0_Layer0_0_FILL"/>

<use xlink:href="#Interpolaci_n_2_0_Layer0_0_1_STROKES" transform="matrix( 2.707305908203125, 0, 0, 1.7347564697265625, 468.35,10.65) "/>
</g>
</g>

<g transform="matrix( 0.9601287841796875, -0.2763519287109375, 0.2763519287109375, 0.9601287841796875, 2.9,-6.85) ">
<g transform="matrix( 0.2504425048828125, 0, 0, 0.576446533203125, -117.3,-6.15) ">
<use xlink:href="#Interpolaci_n_1_0_Layer0_0_FILL"/>

<use xlink:href="#Interpolaci_n_1_0_Layer0_0_1_STROKES" transform="matrix( 3.992919921875, 0, 0, 1.7347564697265625, 468.35,10.65) "/>
</g>
</g>

<g transform="matrix( 1, 0, 0, 1, 0,0) ">
<use xlink:href="#MenuBtnAnim_4_Layer0_0_FILL"/>
</g>
</g>

<g transform="matrix( 1, 0, 0, 1, 285,15) ">
<g transform="matrix( 0.9773406982421875, -0.2083892822265625, 0.2083892822265625, 0.9773406982421875, 0.35,6.6) ">
<g transform="matrix( 0.3693695068359375, 0, 0, 0.576446533203125, -173,-6.1) ">
<use xlink:href="#Interpolaci_n_4_0_Layer0_0_FILL"/>

<use xlink:href="#Interpolaci_n_4_0_Layer0_0_1_STROKES" transform="matrix( 2.707305908203125, 0, 0, 1.7347564697265625, 468.35,10.55) "/>
</g>
</g>

<g transform="matrix( 0.97637939453125, 0.2127685546875, -0.2127685546875, 0.97637939453125, 2.35,3) ">
<g transform="matrix( 0.2838134765625, 0, 0, 0.576446533203125, -132.9,-6.1) ">
<use xlink:href="#Interpolaci_n_3_0_Layer0_0_FILL"/>

<use xlink:href="#Interpolaci_n_3_0_Layer0_0_1_STROKES" transform="matrix( 3.5234375, 0, 0, 1.7347564697265625, 468.25,10.55) "/>
</g>
</g>

<g transform="matrix( 0.977386474609375, 0.208160400390625, -0.208160400390625, 0.977386474609375, -0.4,-2) ">
<g transform="matrix( 0.3693695068359375, 0, 0, 0.576446533203125, -173,-6.15) ">
<use xlink:href="#Interpolaci_n_2_0_Layer0_0_FILL"/>

<use xlink:href="#Interpolaci_n_2_0_Layer0_0_1_STROKES" transform="matrix( 2.707305908203125, 0, 0, 1.7347564697265625, 468.35,10.65) "/>
</g>
</g>

<g transform="matrix( 0.977325439453125, -0.2084503173828125, 0.2084503173828125, 0.977325439453125, 3.1,-7.4) ">
<g transform="matrix( 0.2504425048828125, 0, 0, 0.576446533203125, -117.3,-6.15) ">
<use xlink:href="#Interpolaci_n_1_0_Layer0_0_FILL"/>

<use xlink:href="#Interpolaci_n_1_0_Layer0_0_1_STROKES" transform="matrix( 3.992919921875, 0, 0, 1.7347564697265625, 468.35,10.65) "/>
</g>
</g>

<g transform="matrix( 1, 0, 0, 1, 0,0) ">
<use xlink:href="#MenuBtnAnim_3_Layer0_0_FILL"/>
</g>
</g>

<g transform="matrix( 1, 0, 0, 1, 315,15) ">
<g transform="matrix( 0.9897613525390625, -0.1395111083984375, 0.1395111083984375, 0.9897613525390625, 0.25,7.45) ">
<g transform="matrix( 0.3693695068359375, 0, 0, 0.576446533203125, -173,-6.1) ">
<use xlink:href="#Interpolaci_n_4_0_Layer0_0_FILL"/>

<use xlink:href="#Interpolaci_n_4_0_Layer0_0_1_STROKES" transform="matrix( 2.707305908203125, 0, 0, 1.7347564697265625, 468.35,10.55) "/>
</g>
</g>

<g transform="matrix( 0.9891510009765625, 0.143524169921875, -0.143524169921875, 0.9891510009765625, 2.65,3.05) ">
<g transform="matrix( 0.2838134765625, 0, 0, 0.576446533203125, -132.9,-6.1) ">
<use xlink:href="#Interpolaci_n_3_0_Layer0_0_FILL"/>

<use xlink:href="#Interpolaci_n_3_0_Layer0_0_1_STROKES" transform="matrix( 3.5234375, 0, 0, 1.7347564697265625, 468.25,10.55) "/>
</g>
</g>

<g transform="matrix( 0.9897613525390625, 0.13934326171875, -0.13934326171875, 0.9897613525390625, -0.25,-2.35) ">
<g transform="matrix( 0.3693695068359375, 0, 0, 0.576446533203125, -173,-6.15) ">
<use xlink:href="#Interpolaci_n_2_0_Layer0_0_FILL"/>

<use xlink:href="#Interpolaci_n_2_0_Layer0_0_1_STROKES" transform="matrix( 2.707305908203125, 0, 0, 1.7347564697265625, 468.35,10.65) "/>
</g>
</g>

<g transform="matrix( 0.9897308349609375, -0.139556884765625, 0.139556884765625, 0.9897308349609375, 3.45,-8.05) ">
<g transform="matrix( 0.2504425048828125, 0, 0, 0.576446533203125, -117.3,-6.15) ">
<use xlink:href="#Interpolaci_n_1_0_Layer0_0_FILL"/>

<use xlink:href="#Interpolaci_n_1_0_Layer0_0_1_STROKES" transform="matrix( 3.992919921875, 0, 0, 1.7347564697265625, 468.35,10.65) "/>
</g>
</g>

<g transform="matrix( 1, 0, 0, 1, 0,0) ">
<use xlink:href="#MenuBtnAnim_2_Layer0_0_FILL"/>
</g>
</g>

<g transform="matrix( 1, 0, 0, 1, 345,15) ">
<g transform="matrix( 0.997314453125, -0.0699310302734375, 0.0699310302734375, 0.997314453125, 0.15,8.4) ">
<g transform="matrix( 0.3693695068359375, 0, 0, 0.576446533203125, -173,-6.1) ">
<use xlink:href="#Interpolaci_n_4_0_Layer0_0_FILL"/>

<use xlink:href="#Interpolaci_n_4_0_Layer0_0_1_STROKES" transform="matrix( 2.707305908203125, 0, 0, 1.7347564697265625, 468.35,10.55) "/>
</g>
</g>

<g transform="matrix( 0.997283935546875, 0.0703277587890625, -0.0703277587890625, 0.997283935546875, 2.8,3.05) ">
<g transform="matrix( 0.2838134765625, 0, 0, 0.576446533203125, -132.9,-6.1) ">
<use xlink:href="#Interpolaci_n_3_0_Layer0_0_FILL"/>

<use xlink:href="#Interpolaci_n_3_0_Layer0_0_1_STROKES" transform="matrix( 3.5234375, 0, 0, 1.7347564697265625, 468.25,10.55) "/>
</g>
</g>

<g transform="matrix( 0.997314453125, 0.069854736328125, -0.069854736328125, 0.997314453125, -0.15,-2.75) ">
<g transform="matrix( 0.3693695068359375, 0, 0, 0.576446533203125, -173,-6.15) ">
<use xlink:href="#Interpolaci_n_2_0_Layer0_0_FILL"/>

<use xlink:href="#Interpolaci_n_2_0_Layer0_0_1_STROKES" transform="matrix( 2.707305908203125, 0, 0, 1.7347564697265625, 468.35,10.65) "/>
</g>
</g>

<g transform="matrix( 0.997314453125, -0.0699462890625, 0.0699462890625, 0.997314453125, 3.9,-8.7) ">
<g transform="matrix( 0.2504425048828125, 0, 0, 0.576446533203125, -117.3,-6.15) ">
<use xlink:href="#Interpolaci_n_1_0_Layer0_0_FILL"/>

<use xlink:href="#Interpolaci_n_1_0_Layer0_0_1_STROKES" transform="matrix( 3.992919921875, 0, 0, 1.7347564697265625, 468.35,10.65) "/>
</g>
</g>

<g transform="matrix( 1, 0, 0, 1, 0,0) ">
<use xlink:href="#MenuBtnAnim_1_Layer0_0_FILL"/>
</g>
</g>

<g transform="matrix( 1, 0, 0, 1, 375,15) ">
<g transform="matrix( 1, 0, 0, 1, -0.05,9.35) ">
<g transform="matrix( 0.3693695068359375, 0, 0, 0.576446533203125, -173,-6.1) ">
<use xlink:href="#Interpolaci_n_4_0_Layer0_0_FILL"/>

<use xlink:href="#Interpolaci_n_4_0_Layer0_0_1_STROKES" transform="matrix( 2.707305908203125, 0, 0, 1.7347564697265625, 468.35,10.55) "/>
</g>
</g>

<g transform="matrix( 1, 0, 0, 1, 3.05,3.15) ">
<g transform="matrix( 0.2838134765625, 0, 0, 0.576446533203125, -132.9,-6.1) ">
<use xlink:href="#Interpolaci_n_3_0_Layer0_0_FILL"/>

<use xlink:href="#Interpolaci_n_3_0_Layer0_0_1_STROKES" transform="matrix( 3.5234375, 0, 0, 1.7347564697265625, 468.25,10.55) "/>
</g>
</g>

<g transform="matrix( 1, 0, 0, 1, -0.05,-3.05) ">
<g transform="matrix( 0.3693695068359375, 0, 0, 0.576446533203125, -173,-6.15) ">
<use xlink:href="#Interpolaci_n_2_0_Layer0_0_FILL"/>

<use xlink:href="#Interpolaci_n_2_0_Layer0_0_1_STROKES" transform="matrix( 2.707305908203125, 0, 0, 1.7347564697265625, 468.35,10.65) "/>
</g>
</g>

<g transform="matrix( 1, 0, 0, 1, 4.35,-9.35) ">
<g transform="matrix( 0.2504425048828125, 0, 0, 0.576446533203125, -117.3,-6.15) ">
<use xlink:href="#Interpolaci_n_1_0_Layer0_0_FILL"/>

<use xlink:href="#Interpolaci_n_1_0_Layer0_0_1_STROKES" transform="matrix( 3.992919921875, 0, 0, 1.7347564697265625, 468.35,10.65) "/>
</g>
</g>

<g transform="matrix( 1, 0, 0, 1, 0,0) ">
<use xlink:href="#MenuBtnAnim_0_Layer0_0_FILL"/>
</g>
</g>
</svg>
