
<svg xmlns="http://www.w3.org/2000/svg" version="1.1" xmlns:xlink="http://www.w3.org/1999/xlink" preserveAspectRatio="none" x="0px" y="0px" width="232px" height="42px" viewBox="0 0 232 42">
<defs>
<g id="Layer0_0_FILL">
<path fill="#EE9E2C" stroke="none" d="
M 30.2 8.55
Q 28.05 3.3 22.75 1.15 17.45 -1 12.2 1.25
L 13.2 3.55
Q 17.55 1.7 21.85 3.55 25.95 5.2 27.95 9.55
L 30.2 8.55
M 23.1 11.35
L 25.4 10.35
Q 24.05 7.05 20.7 5.7 17.3 4.35 13.95 5.75
L 14.95 8.05
Q 17.35 7.1 19.75 8.05 22.15 9.05 23.1 11.35
M 14.4 15.65
Q 12.4 15.65 11 17.05 9.6 18.45 9.6 20.4 9.6 22.4 11.05 23.8 12.45 25.2 14.4 25.2 16.4 25.2 17.8 23.8 19.2 22.4 19.2 20.4 19.2 18.45 17.8 17.05 16.4 15.65 14.4 15.65
M 19.1 11.4
Q 18.55 10.85 17.7 10.85 16.9 10.85 16.35 11.45 15.85 12 15.85 12.75 15.85 13.6 16.35 14.1 16.9 14.65 17.7 14.65 18.55 14.65 19.1 14.1 19.6 13.55 19.6 12.75 19.6 11.9 19.1 11.4 Z"/>

<path fill="#FFFFFF" stroke="none" d="
M 26.95 12.55
Q 28.35 15.2 28.35 18.25 28.35 23.3 24.8 26.8 21.3 30.35 16.25 30.35 11.25 30.35 7.7 26.8 4.15 23.25 4.15 18.25 4.15 14.4 6.3 11.3 8.45 8.25 11.85 6.95
L 10.35 3.15
Q 5.75 5 2.95 9 0.05 13.15 0.05 18.25 0.05 24.95 4.8 29.7 9.6 34.45 16.25 34.45 22.95 34.45 27.7 29.7 32.45 24.95 32.45 18.25 32.45 14.45 30.75 11.05
L 26.95 12.55
M 58.45 7.45
Q 55.85 5.25 51.85 5.25 48.1 5.25 45.55 7.35 42.7 9.6 42.7 13.45 42.7 17.35 45.7 19.65 47.4 20.95 51.7 22.45 54.15 23.25 55.15 23.95 56.6 24.9 56.6 26.25 56.6 27.5 55.65 28.25 54.55 29.05 52.55 29.05 47.85 29.05 47.85 25.25
L 42.35 25.25
Q 42.35 29.75 45.4 32.2 48.15 34.4 52.55 34.45 56.65 34.45 59.3 32.4 62.15 30.15 62.15 26.25 62.15 22.3 59 20.1 57.35 18.95 52.75 17.35 50.55 16.6 49.55 15.8 48.25 14.85 48.25 13.45 48.25 12.2 49.2 11.45 50.15 10.65 51.85 10.65 53.75 10.65 54.8 11.6 55.85 12.55 55.85 14.35
L 61.35 14.35
Q 61.35 9.9 58.45 7.45
M 87.15 23.85
Q 87.15 19.4 84.3 16.3 81.4 13.25 77.35 13.25 73.1 13.25 70.85 16.15
L 70.85 13.85 65.65 13.85 65.65 41.95 70.85 41.95 70.85 31.55
Q 73.1 34.45 77.35 34.45 81.45 34.45 84.3 31.4 87.15 28.3 87.15 23.85
M 76.35 18.15
Q 78.75 18.15 80.3 19.75 81.9 21.35 81.9 23.85 81.9 26.4 80.3 27.95 78.75 29.5 76.35 29.4 74.05 29.4 72.55 28 70.95 26.5 70.85 24.15
L 70.85 23.4
Q 70.9 21.05 72.45 19.6 74 18.15 76.35 18.15
M 110.9 23.85
Q 110.9 19.35 107.85 16.3 104.8 13.25 100.35 13.25 95.9 13.25 92.8 16.3 89.75 19.35 89.75 23.85 89.75 28.35 92.8 31.4 95.9 34.45 100.35 34.45 104.8 34.45 107.85 31.4 110.9 28.35 110.9 23.85
M 104.15 19.85
Q 105.75 21.4 105.75 23.85 105.75 26.3 104.2 27.85 102.65 29.4 100.25 29.35 98 29.35 96.45 27.8 94.85 26.25 94.85 23.85 94.85 21.45 96.4 19.9 97.9 18.35 100.25 18.35 102.6 18.35 104.15 19.85
M 124.65 19.35
L 124.65 14.35 121.15 14.35 121.15 7.95 115.95 7.95 115.95 14.35 112.45 14.35 112.45 19.35 115.95 19.35 115.95 34.45 121.15 34.45 121.15 19.35 124.65 19.35
M 125.85 19.35
L 129.35 19.35 129.35 34.45 134.5 34.45 134.5 19.35 138 19.35 138 14.35 134.5 14.35 134.5 7.95 129.35 7.95 129.35 14.35 125.85 14.35 125.85 19.35
M 159.95 23.8
Q 159.95 19.3 157.15 16.3 154.3 13.2 149.95 13.2 145.3 13.2 142.3 16.25 139.35 19.25 139.35 23.8 139.35 28.35 142.3 31.35 145.35 34.4 150.15 34.4 153.6 34.4 156.05 32.8 158.55 31.15 159.45 28.15
L 154.35 28.15
Q 153.85 29 152.7 29.55 151.5 30.15 150.2 30.15 148.2 30.15 146.8 29.15 145.3 28 144.85 25.9
L 159.75 25.9
Q 159.95 25.2 159.95 23.8
M 153 18.85
Q 154.4 19.9 154.85 21.9
L 144.65 21.9
Q 145.75 17.9 149.95 17.9 151.75 17.9 153 18.85
M 174.15 19.9
L 174.15 14.15
Q 170.05 14.15 168.65 17.55
L 168.65 14.55 163.45 14.55 163.45 34.65 168.65 34.65 168.65 24.7
Q 168.65 22 170.4 20.75 171.85 19.7 174.15 19.9
M 226.3 23.4
Q 225.85 22.95 225.2 22.8 224.2 22.6 223.5 22.6 222.7 22.6 222.4 22.7 222.1 22.7 221.5 22.9
L 220.7 23.2
Q 220.4 23.3 220.2 23.5 220 23.7 220 23.8
L 220 24.7 220.1 25
Q 220.1 25.2 220.2 25.2
L 220.4 25.3
Q 220.6 25.3 220.8 25.2
L 222.2 24.6
Q 222.5 24.5 223.2 24.5 223.7 24.5 223.9 24.6
L 224.4 24.9
Q 224.45 24.95 224.7 25.4 224.8 25.6 224.8 26.1
L 224.8 26.6 224 26.6
Q 223.3 26.6 222.1 26.8 221.5 26.9 220.7 27.3 220 28 219.9 28.2 219.6 28.65 219.6 29.4 219.6 30 219.8 30.6 219.95 31.1 220.4 31.4 220.75 31.75 221.3 31.9 222.1 32.1 222.5 32.1 223.3 32.1 223.9 31.8 224.75 31.45 225.1 31
L 225.1 31.7
Q 225.1 31.9 225.2 31.9
L 225.5 32 226.7 32
Q 226.85 32 227 31.9 227.15 31.9 227.15 31.7
L 227.1 31.7 227.1 25.9
Q 227.1 25.2 226.9 24.4 226.75 23.85 226.3 23.4
M 221.95 29.45
Q 221.95 29.15 222.05 28.95 222.2 28.7 222.45 28.55
L 223.05 28.35
Q 223.35 28.25 224.05 28.25
L 224.85 28.25 224.85 29.6
Q 224.6 29.95 224 30.3 223.4 30.55 223.15 30.55 222.55 30.55 222.25 30.25 221.95 29.95 221.95 29.45 Z"/>

<path fill="#ADADAD" stroke="none" d="
M 202.65 34.05
Q 203.35 33.2 203.35 31.55 203.35 29.9 202.65 29.05 201.95 28.15 200.65 28.15 199.15 28.15 198.55 29.25
L 198.55 25.55 197.55 25.55 197.55 34.85 198.25 34.85 198.45 34.05 198.55 34.05
Q 199.05 34.55 199.45 34.75 200.25 34.95 200.65 34.95 201.9 34.95 202.65 34.05
M 200.45 28.9
Q 201.25 28.9 201.95 29.6 202.35 30.25 202.35 31.5 202.35 32.85 201.95 33.4 201.5 34.15 200.55 34.15 199.5 34.15 199.05 33.55 198.55 32.9 198.55 31.55 198.55 30 198.95 29.55 199.45 28.9 200.45 28.9
M 210.15 28.2
L 209.05 28.2 207.15 33.7 205.15 28.25 204 28.25 206.65 35 206.25 35.9
Q 205.8 37 204.75 37
L 204.05 36.9 204.05 37.7
Q 204.35 37.8 204.95 37.8 205.7 37.8 206.35 37.3 206.8 36.95 207.35 35.7
L 210.15 28.2 Z"/>

<path fill="#009FD4" stroke="none" d="
M 232 21.9
Q 232 20.7 231.2 19.9 230.35 19.05 229.15 19.05
L 217.85 19.05
Q 216.6 19.05 215.75 19.9 214.85 20.75 214.85 22.05
L 214.85 33.15
Q 214.85 34.35 215.7 35.25 216.6 36.15 217.85 36.15
L 229.2 36.15
Q 230.35 36.15 231.15 35.3 232 34.45 232 33.2
L 232 21.9
M 230.3 20.75
Q 230.85 21.25 230.85 21.9
L 230.85 33.35
Q 230.85 34 230.35 34.45 229.9 34.9 229.2 34.9
L 217.85 34.9
Q 217.1 34.9 216.55 34.4 216 33.9 216 33.15
L 216 22.05
Q 216 21.3 216.55 20.8 217.1 20.25 217.85 20.25
L 229.15 20.2
Q 229.8 20.2 230.3 20.75 Z"/>
</g>
</defs>

<g transform="matrix( 1, 0, 0, 1, 0,0) ">
<use xlink:href="#Layer0_0_FILL"/>
</g>
</svg>
